<?xml version="1.0" encoding="UTF-8" standalone="no"?>
<svg
   version="1.1"
   width="398.49139"
   height="350.01849"
   style="clip-rule:evenodd;fill-rule:evenodd;image-rendering:optimizeQuality;shape-rendering:geometricPrecision;text-rendering:geometricPrecision"
   id="svg113"
   sodipodi:docname="pngwing.com.svg"
   xmlns:inkscape="http://www.inkscape.org/namespaces/inkscape"
   xmlns:sodipodi="http://sodipodi.sourceforge.net/DTD/sodipodi-0.dtd"
   xmlns="http://www.w3.org/2000/svg"
   xmlns:svg="http://www.w3.org/2000/svg">
  <defs
     id="defs117" />
  <sodipodi:namedview
     id="namedview115"
     pagecolor="#505050"
     bordercolor="#eeeeee"
     borderopacity="1"
     inkscape:showpageshadow="0"
     inkscape:pageopacity="0"
     inkscape:pagecheckerboard="0"
     inkscape:deskcolor="#505050"
     showgrid="false" />
  <g
     id="g111"
     transform="translate(-382.5,-234.20515)">
    <path
       style="opacity:0.771"
       fill="#C2E0FF"
       d="m 572.5,234.5 c 63.724,-3.21 115.558,19.79 155.5,69 13.112,17.892 22.779,37.558 29,59 21.642,17.262 28.642,39.262 21,66 -4.341,11.34 -11.341,20.673 -21,28 -22.653,70.742 -70.487,112.908 -143.5,126.5 -77.971,7.762 -137.471,-21.405 -178.5,-87.5 -7.219,-13.435 -13.052,-27.435 -17.5,-42 -3.809,2.642 -7.476,5.475 -11,8.5 -0.832,0.688 -1.498,0.521 -2,-0.5 4.246,-5.491 8.246,-11.158 12,-17 -0.99,-3.605 -1.656,-7.272 -2,-11 -6.267,2.039 -12.601,3.539 -19,4.5 6.097,-3.799 11.931,-7.965 17.5,-12.5 0.415,-4.348 0.249,-8.681 -0.5,-13 -10.055,-1.079 -20.055,-2.579 -30,-4.5 9.54,-2.221 19.207,-3.888 29,-5 0.5,-0.5 1,-1 1.5,-1.5 0.667,-3.333 0.667,-6.667 0,-10 -4.641,-3.141 -9.141,-6.474 -13.5,-10 4.533,0.606 9.199,1.94 14,4 1.387,-4.835 2.721,-9.668 4,-14.5 -4.333,-5.667 -8.667,-11.333 -13,-17 1.408,-0.315 2.741,0.018 4,1 3.192,2.692 6.525,5.192 10,7.5 25.046,-74.386 76.379,-117.052 154,-128 z m -98,47 c 40.478,-35.095 87.478,-48.929 141,-41.5 33.138,5.738 62.138,19.738 87,42 -1.408,0.315 -2.741,-0.018 -4,-1 -49.948,-40.121 -105.615,-50.454 -167,-31 -20.468,7.144 -38.635,17.977 -54.5,32.5 -0.671,-0.752 -1.504,-1.086 -2.5,-1 z m 98,-38 c 45.933,-3.297 86.6,9.536 122,38.5 -2.15,1.59 -4.483,2.257 -7,2 -48.214,-36.104 -100.881,-44.104 -158,-24 -15.701,6.595 -30.201,15.095 -43.5,25.5 -1.171,-1.393 -2.671,-2.227 -4.5,-2.5 26.296,-22.482 56.629,-35.648 91,-39.5 z m 9,9 c 1.667,0 3.333,0 5,0 0,5 0,10 0,15 -1.667,0 -3.333,0 -5,0 0,-5 0,-10 0,-15 z m 9,0 c 1.667,0 3.333,0 5,0 0.166,4.346 -10e-4,8.679 -0.5,13 -1.049,1.607 -2.549,2.273 -4.5,2 0,-5 0,-10 0,-15 z m -20,1 c 2.333,0 4.667,0 7,0 0.498,4.652 0.831,9.319 1,14 -2,0 -4,0 -6,0 -0.667,-4.667 -1.333,-9.333 -2,-14 z m 29,0 c 2.333,0 4.667,0 7,0 -0.171,4.696 -0.671,9.363 -1.5,14 -1.956,0.284 -4.123,0.284 -6.5,0 -0.147,-4.714 0.186,-9.381 1,-14 z m -38,1 c 2,0 4,0 6,0 0.498,4.652 0.831,9.319 1,14 -2,0.333 -4,0.667 -6,1 -0.471,-3.856 -1.138,-7.689 -2,-11.5 0.148,-1.256 0.482,-2.423 1,-3.5 z m 49,0 c 2.556,-0.368 4.556,0.466 6,2.5 -0.961,3.803 -1.794,7.636 -2.5,11.5 -1.707,0.638 -3.54,0.638 -5.5,0 0.574,-4.683 1.24,-9.35 2,-14 z m -59,2 c 1.788,-0.285 3.455,0.048 5,1 1,4 2,8 3,12 -1.841,0.73 -3.675,1.397 -5.5,2 -1.012,-4.383 -2.179,-8.716 -3.5,-13 0.363,-0.683 0.696,-1.35 1,-2 z m 68,0 c 2.771,-0.079 5.437,0.421 8,1.5 -1.561,4.073 -2.895,8.239 -4,12.5 -1.826,0.42 -3.826,0.42 -6,0 0.883,-4.632 1.55,-9.298 2,-14 z m -75,2 c 1,0 2,0 3,0 0.526,4.436 1.526,8.769 3,13 -1.128,0.762 -2.295,1.429 -3.5,2 -2.024,-4.403 -3.858,-8.903 -5.5,-13.5 1.237,-0.232 2.237,-0.732 3,-1.5 z m 86,0 c 2.267,0.923 4.6,1.756 7,2.5 -2.024,4.403 -3.858,8.903 -5.5,13.5 -1.067,-0.691 -2.234,-1.191 -3.5,-1.5 -0.559,-0.725 -0.892,-1.558 -1,-2.5 1.008,-4.018 2.008,-8.018 3,-12 z m -95,3 c 1.175,-0.219 2.175,0.114 3,1 1.333,3.667 2.667,7.333 4,11 -1.268,1.547 -2.935,2.547 -5,3 -2.128,-4.09 -4.128,-8.257 -6,-12.5 1.358,-0.934 2.692,-1.768 4,-2.5 z m 105,1 c 3.073,-0.047 5.406,1.119 7,3.5 -1.542,4.167 -3.542,8 -6,11.5 -2.34,-0.366 -4.007,-1.533 -5,-3.5 1.244,-3.899 2.577,-7.733 4,-11.5 z m -113,2 c 2.225,4.123 4.225,8.456 6,13 -1.99,0.998 -3.99,1.998 -6,3 -2.46,-4.086 -4.793,-8.253 -7,-12.5 2.674,-0.67 5.007,-1.837 7,-3.5 z m 124,2 c 2.257,0.462 4.257,1.462 6,3 -1.844,4.364 -4.177,8.364 -7,12 -1.667,-0.833 -3.333,-1.667 -5,-2.5 2.099,-4.136 4.099,-8.303 6,-12.5 z m -135,3 c 2.811,3.609 5.145,7.609 7,12 -0.936,1.474 -2.27,2.474 -4,3 -3.024,-3.534 -5.69,-7.367 -8,-11.5 1.846,-1.03 3.513,-2.196 5,-3.5 z m 62,1 c 1.699,-0.16 3.366,0.006 5,0.5 -8.5,8.5 -17,17 -25.5,25.5 -11.18,-3.226 -22.347,-6.559 -33.5,-10 17.065,-8.803 35.065,-14.136 54,-16 z m 14,1 c 20.796,-0.193 40.463,4.807 59,15 -10.995,3.331 -21.995,6.665 -33,10 -8.687,-8.355 -17.354,-16.688 -26,-25 z m 68,0 c 1.923,0.295 3.59,1.128 5,2.5 -2.376,3.919 -4.876,7.752 -7.5,11.5 -1.255,-0.711 -2.421,-1.544 -3.5,-2.5 2.663,-3.493 4.663,-7.327 6,-11.5 z m -153,3 c 2.767,4.017 5.434,8.184 8,12.5 -1.51,0.85 -3.01,1.683 -4.5,2.5 -3.166,-3.128 -6,-6.628 -8.5,-10.5 1.74,-1.517 3.406,-3.017 5,-4.5 z m 161,1 c 2.018,0.675 3.684,1.841 5,3.5 -2.369,3.902 -4.869,7.735 -7.5,11.5 -1.298,-1.06 -2.465,-2.226 -3.5,-3.5 2.133,-3.766 4.133,-7.599 6,-11.5 z m -83,4 c 1.157,8.156 1.323,16.49 0.5,25 -6.173,-1.92 -12.34,-3.92 -18.5,-6 6.022,-6.354 12.022,-12.687 18,-19 z m 4,0 c 6.646,5.979 12.979,12.312 19,19 -6.16,2.08 -12.327,4.08 -18.5,6 -0.5,-8.327 -0.666,-16.66 -0.5,-25 z m -91,1 c 3.02,3.522 5.686,7.355 8,11.5 -1.035,1.274 -2.202,2.44 -3.5,3.5 -2.955,-3.744 -5.789,-7.578 -8.5,-11.5 1.593,-0.949 2.926,-2.115 4,-3.5 z m 178,1 c 2.437,0.386 4.437,1.553 6,3.5 -2.418,4.006 -5.418,7.506 -9,10.5 -1.481,-0.98 -2.815,-2.147 -4,-3.5 2.716,-3.271 5.049,-6.771 7,-10.5 z m -201,5 c 8.011,-0.183 12.678,3.984 14,12.5 -0.333,0.833 -0.667,1.667 -1,2.5 -1.983,-3.491 -4.983,-5.158 -9,-5 0.75,-4.275 -0.583,-7.609 -4,-10 z m 220,-1 c 1.373,-0.157 2.707,0.01 4,0.5 -3.55,2.546 -4.883,6.046 -4,10.5 -4.548,-0.301 -7.715,1.699 -9.5,6 -1.243,-8.231 1.924,-13.898 9.5,-17 z m -205,1 c 3.325,3.332 6.325,6.999 9,11 -1.365,1.441 -2.865,2.774 -4.5,4 -0.667,-0.667 -1.333,-1.333 -2,-2 -0.112,-4.006 -1.278,-7.673 -3.5,-11 0.363,-0.683 0.696,-1.35 1,-2 z m -23,2 c 6.165,-0.671 8.665,1.996 7.5,8 -3.048,3.982 -6.048,3.982 -9,0 -0.891,-2.998 -0.391,-5.664 1.5,-8 z m 234,0 c 8.318,0.487 9.985,3.987 5,10.5 -5.312,0.942 -7.812,-1.225 -7.5,-6.5 0.662,-1.484 1.496,-2.817 2.5,-4 z m -42,2 c 19.123,11.956 34.789,27.456 47,46.5 -12.078,-2.353 -24.078,-5.353 -36,-9 -4.053,-12.377 -7.72,-24.877 -11,-37.5 z m -145,1 c 0.739,-0.131 1.406,0.036 2,0.5 -3.572,11.782 -7.072,23.615 -10.5,35.5 -12.002,4.005 -24.169,7.171 -36.5,9.5 11.86,-18.359 26.86,-33.526 45,-45.5 z m 168,1 c -0.304,3.022 -0.804,6.022 -1.5,9 -3.895,-3.171 -3.395,-6.171 1.5,-9 z m -156,3 c 8.6,1.732 16.934,4.232 25,7.5 -4.5,4.5 -9,9 -13.5,13.5 -4.366,-6.734 -8.199,-13.734 -11.5,-21 z m 121,0 c 1.052,-0.149 2.052,0.017 3,0.5 -3.874,6.915 -7.874,13.749 -12,20.5 -4.819,-4.318 -9.485,-8.818 -14,-13.5 7.681,-2.665 15.347,-5.165 23,-7.5 z m 68,0 c 16.791,18.394 29.124,39.56 37,63.5 -0.949,0.617 -1.782,0.451 -2.5,-0.5 -7.228,-22.47 -18.561,-42.47 -34,-60 -0.483,-0.948 -0.649,-1.948 -0.5,-3 z m -258,2 c 1.098,1.101 1.265,2.434 0.5,4 -15.714,19.429 -27.214,41.095 -34.5,65 -0.856,-2.639 -0.69,-5.306 0.5,-8 7.553,-22.449 18.72,-42.782 33.5,-61 z m 58,27 c 1.804,-8.908 4.304,-17.575 7.5,-26 3.581,6.83 7.414,13.497 11.5,20 -0.881,1.471 -2.214,2.304 -4,2.5 -4.984,1.33 -9.984,2.496 -15,3.5 z m 137,-26 c 1.086,0.12 1.753,0.787 2,2 2.347,8.392 4.514,16.726 6.5,25 -6.601,-1.94 -13.101,-4.107 -19.5,-6.5 4.073,-6.649 7.74,-13.482 11,-20.5 z m 50,13 c 0.605,-2.627 1.105,-5.293 1.5,-8 3.505,-0.415 6.172,-2.081 8,-5 0.145,6.696 -3.022,11.03 -9.5,13 z m -230,0 c -6.708,-1.207 -9.875,-5.207 -9.5,-12 2.04,1.853 4.373,3.186 7,4 0.542,2.792 1.376,5.458 2.5,8 z m 6,-12 c 3.627,0.121 5.96,1.955 7,5.5 -1.084,5.023 -4.084,6.69 -9,5 -3.098,-4.342 -2.431,-7.842 2,-10.5 z m 215,0 c 7.103,1.367 8.437,4.867 4,10.5 -5.34,0.989 -7.84,-1.178 -7.5,-6.5 0.69,-1.85 1.856,-3.184 3.5,-4 z m 22,4 c 12.823,14.713 22.656,31.38 29.5,50 0.749,1.135 0.583,2.135 -0.5,3 -2.211,-0.623 -4.211,-1.623 -6,-3 -6.115,-15.571 -14.282,-29.904 -24.5,-43 -0.239,-2.459 0.261,-4.793 1.5,-7 z m -164,11 c 2.962,-3.464 6.129,-6.797 9.5,-10 3.791,1.408 7.625,2.741 11.5,4 -6.768,2.776 -13.768,4.776 -21,6 z m 73,0 c -7.11,-1.361 -14.11,-3.194 -21,-5.5 3.726,-1.725 7.559,-3.225 11.5,-4.5 3.371,3.203 6.538,6.536 9.5,10 z m -166,-9 c 1.839,1.008 3.172,2.508 4,4.5 -10.419,13.332 -18.919,27.832 -25.5,43.5 -1.508,-1.517 -2.342,-3.351 -2.5,-5.5 5.819,-15.479 13.819,-29.646 24,-42.5 z m 128,7 c 2.354,0.338 4.687,0.838 7,1.5 -3.667,0.667 -7.333,0.667 -11,0 1.558,-0.21 2.891,-0.71 4,-1.5 z m 121,2 c 0.502,-1.585 1.502,-2.085 3,-1.5 -0.744,1.039 -1.744,1.539 -3,1.5 z m 0,0 c -2.14,2.665 -4.64,4.998 -7.5,7 -1.167,-1.667 -2.333,-3.333 -3.5,-5 3.419,-0.345 7.086,-1.011 11,-2 z m -245,1 c 1.052,-0.149 2.052,0.017 3,0.5 3,2.5 6,5 9,7.5 -1.361,1.528 -2.528,3.195 -3.5,5 -3.922,-2.711 -7.756,-5.545 -11.5,-8.5 0.886,-1.615 1.886,-3.115 3,-4.5 z m 9,1 c 2.811,0.087 5.811,-0.08 9,-0.5 -1.287,1.41 -2.454,2.91 -3.5,4.5 -1.774,-1.465 -3.608,-2.798 -5.5,-4 z m 241,-1 c 2.034,1.048 3.367,2.714 4,5 -3.695,2.862 -7.529,5.528 -11.5,8 -1.289,-1.555 -1.956,-3.221 -2,-5 3.516,-2.328 6.682,-4.995 9.5,-8 z m -67,24 c -36.318,-25.408 -73.318,-26.408 -111,-3 15.493,-12.443 33.326,-18.443 53.5,-18 22.041,-0.38 41.208,6.62 57.5,21 z m -189,-16 c 4.254,2.249 8.254,4.915 12,8 -0.54,1.248 -1.207,2.415 -2,3.5 -4.169,-1.46 -7.836,-3.293 -11,-5.5 -0.333,-0.5 -0.667,-1 -1,-1.5 0.914,-1.406 1.58,-2.906 2,-4.5 z m 121,0 c 2.687,-0.164 5.354,0.003 8,0.5 -4.026,11.744 -7.859,23.577 -11.5,35.5 -11.588,-7.212 -23.421,-14.046 -35.5,-20.5 11.954,-8.035 24.954,-13.202 39,-15.5 z m 11,1 c 17.574,-0.98 33.574,3.853 48,14.5 -10,6 -20,12 -30,18 -1.525,1.009 -3.192,1.509 -5,1.5 -3.814,-11.611 -8.147,-22.944 -13,-34 z m 130,-1 c 1.666,1.687 3,3.687 4,6 -3.917,2.208 -7.75,4.541 -11.5,7 -1.529,-1.229 -2.696,-2.729 -3.5,-4.5 3.735,-2.853 7.402,-5.687 11,-8.5 z m -178,3 c -0.473,1.406 -1.473,2.073 -3,2 0.473,-1.406 1.473,-2.073 3,-2 z m 95,0 c 1.527,-0.073 2.527,0.594 3,2 -1.527,0.073 -2.527,-0.594 -3,-2 z m -49,4 c 7.467,17.218 14.467,34.718 21,52.5 18.7,0.62 37.367,1.62 56,3 -13.741,11.619 -27.574,23.119 -41.5,34.5 -0.667,1.667 -0.667,3.333 0,5 4.339,16.685 8.339,33.352 12,50 -15.409,-10.41 -31.076,-20.41 -47,-30 -15.924,9.59 -31.591,19.59 -47,30 3.909,-17.474 8.076,-34.974 12.5,-52.5 -1.92,-2.927 -4.253,-5.594 -7,-8 -10.96,-8.624 -21.626,-17.624 -32,-27 1.667,-1 3.333,-2 5,-3 17.358,-0.363 34.692,-1.196 52,-2.5 5.54,-17.286 10.873,-34.619 16,-52 z m -135,1 c 1.473,1.24 3.14,2.24 5,3 1.141,1.921 1.308,3.921 0.5,6 -2.583,-1.374 -5.083,-2.874 -7.5,-4.5 1.082,-1.33 1.749,-2.83 2,-4.5 z m 71,0 c -3.963,4.464 -8.13,8.798 -12.5,13 0.185,-3.405 1.018,-6.739 2.5,-10 3.093,-1.809 6.426,-2.809 10,-3 z m 131,0 c 3.666,0.458 7.166,1.458 10.5,3 1.116,3.32 1.783,6.653 2,10 -4.37,-4.202 -8.537,-8.536 -12.5,-13 z m 69,2 c 2.746,0.428 4.413,2.094 5,5 -3.983,3.181 -8.316,4.848 -13,5 -0.667,-1 -1.333,-2 -2,-3 3.4,-2.356 6.733,-4.689 10,-7 z m -221,3 c 0.876,-0.131 1.543,0.202 2,1 -1.603,6.476 -3.603,12.809 -6,19 -7.131,-3.968 -14.131,-8.134 -21,-12.5 8.497,-2.369 16.831,-4.869 25,-7.5 z m 33,0 c -5.307,4.972 -10.64,9.972 -16,15 4.048,-6.382 9.382,-11.382 16,-15 z m 138,0 c 9.011,2.392 18.011,4.892 27,7.5 -6.669,4.67 -13.669,8.837 -21,12.5 -2.312,-6.582 -4.312,-13.249 -6,-20 z m -212,1 c 4.833,0.34 5.333,2.007 1.5,5 -0.608,-1.654 -1.108,-3.321 -1.5,-5 z m -13,2 c 2.723,1.781 5.557,3.448 8.5,5 0.756,2.309 0.256,4.309 -1.5,6 -3.375,-1.403 -6.709,-2.903 -10,-4.5 1.414,-1.993 2.414,-4.16 3,-6.5 z m 198,0 c 6.714,4.38 12.048,10.047 16,17 -5.305,-5.64 -10.639,-11.307 -16,-17 z m -6,1 c 13.601,10.776 23.601,24.276 30,40.5 -13.717,0.819 -27.384,0.319 -41,-1.5 3.874,-12.955 7.541,-25.955 11,-39 z m -105,1 c 4.036,12.632 7.703,25.465 11,38.5 -5.836,0.472 -11.669,0.972 -17.5,1.5 -7.026,-0.144 -14.193,-0.311 -21.5,-0.5 6.092,-15.572 15.425,-28.738 28,-39.5 z m 193,1 c 0.996,-0.086 1.829,0.248 2.5,1 1.301,1.902 1.968,3.902 2,6 -4.143,2.665 -8.643,3.498 -13.5,2.5 -1.247,-1.494 -1.247,-2.994 0,-4.5 3.224,-1.441 6.224,-3.108 9,-5 z m -263,3 c 2.622,7.126 4.955,14.459 7,22 -1.247,2.829 -2.747,5.495 -4.5,8 -1.819,-7.912 -3.319,-15.912 -4.5,-24 0.678,-2.016 1.344,-4.016 2,-6 z m 246,0 c 1.559,2.108 2.892,4.441 4,7 -1.776,1.947 -3.776,2.28 -6,1 0.982,-2.596 1.649,-5.262 2,-8 z m -165,2 c 9.022,4.596 17.855,9.596 26.5,15 -0.693,5.093 -2.026,10.093 -4,15 -7.332,-10.16 -14.832,-20.16 -22.5,-30 z m 83,0 c 0.739,-0.131 1.406,0.036 2,0.5 -7.534,9.567 -14.7,19.401 -21.5,29.5 -1.704,-4.903 -3.537,-9.737 -5.5,-14.5 8.506,-5.03 16.839,-10.196 25,-15.5 z m 73,0 c 0.393,3.922 -0.607,7.755 -3,11.5 -3.667,2.167 -7.333,4.333 -11,6.5 -1.983,-1.482 -3.816,-3.149 -5.5,-5 -0.688,-0.832 -0.521,-1.498 0.5,-2 6.56,-3.441 12.893,-7.108 19,-11 z m -227,1 c 2.59,0.628 4.923,1.795 7,3.5 -1.877,2.251 -3.377,4.751 -4.5,7.5 -1.31,-3.57 -2.143,-7.237 -2.5,-11 z m -31,1 c 3.928,1.924 7.928,3.757 12,5.5 -0.923,2.041 -1.256,4.208 -1,6.5 -4.793,-1.265 -9.459,-2.931 -14,-5 0.812,-2.445 1.812,-4.778 3,-7 z m 98,0 c 7.526,9.855 15.193,19.688 23,29.5 -5.133,1.755 -10.3,1.921 -15.5,0.5 -2.819,-9.941 -5.319,-19.941 -7.5,-30 z m -109,1 c 1.21,2.977 2.21,6.144 3,9.5 -1.258,4.202 -2.591,8.368 -4,12.5 -1.875,-1.04 -3.208,-2.54 -4,-4.5 1.775,-5.822 3.442,-11.656 5,-17.5 z m 86,1 c -1.516,3.033 -3.516,5.7 -6,8 1.029,-3.391 3.029,-6.057 6,-8 z m 113,0 c 0.597,0.235 0.93,0.735 1,1.5 -2.59,8.862 -5.257,17.695 -8,26.5 -4.083,1.357 -8.083,1.191 -12,-0.5 6.579,-9.065 12.913,-18.232 19,-27.5 z m -148,2 c 3.773,1.721 7.439,3.721 11,6 -4.318,4.819 -8.818,9.485 -13.5,14 -0.601,-1.637 -1.101,-3.303 -1.5,-5 1.186,-5.078 2.519,-10.078 4,-15 z m 178,3 c 4.812,5.604 8.646,11.937 11.5,19 1.25,2.577 1.584,5.243 1,8 -3.117,-9.563 -7.284,-18.563 -12.5,-27 z m 58,1 c 23.412,-2.206 40.912,7.128 52.5,28 12.111,32.937 2.611,57.437 -28.5,73.5 -28.686,8.404 -50.852,-0.096 -66.5,-25.5 -5.998,-13.297 -6.998,-26.963 -3,-41 -1.055,25.087 10.445,40.921 34.5,47.5 29.57,2.098 46.237,-11.568 50,-41 -1.804,-24.49 -14.804,-38.323 -39,-41.5 z m -207,2 c -5.044,9.3 -9.21,18.967 -12.5,29 1.43,-10.859 5.597,-20.526 12.5,-29 z m 157,0 c 1.604,0.787 2.271,2.12 2,4 -1.174,-1.014 -1.84,-2.347 -2,-4 z m 40,1 c 3,0 6,0 9,0 2.477,8.573 4.643,17.24 6.5,26 1.239,5.961 1.573,11.961 1,18 -8,-8 -16,-16 -24,-24 0.886,-6.018 2.22,-12.018 4,-18 1.302,-0.585 2.469,-1.251 3.5,-2 z m -268,2 c 0.06,-0.543 0.393,-0.876 1,-1 3.227,1.409 6.56,2.409 10,3 -0.333,2 -0.667,4 -1,6 -2.196,-0.065 -4.196,-0.732 -6,-2 -1,-2.313 -2.334,-4.313 -4,-6 z m 281,-1 c 5.314,-0.261 5.814,0.406 1.5,2 -1.03,-0.336 -1.53,-1.003 -1.5,-2 z m -262,3 c 1.468,5.485 2.301,11.152 2.5,17 -0.667,-0.667 -1.333,-1.333 -2,-2 -0.499,-4.989 -0.666,-9.989 -0.5,-15 z m 271,0 c 3.016,0.341 5.682,1.507 8,3.5 -4.689,1.342 -9.355,2.342 -14,3 -1.017,-1.049 -1.184,-2.216 -0.5,-3.5 2.294,-0.922 4.461,-1.922 6.5,-3 z m -35,1 c 0.537,2.589 0.037,5.256 -1.5,8 -1.167,-1.167 -2.333,-2.333 -3.5,-3.5 1.74,-1.517 3.406,-3.017 5,-4.5 z m -240,1 c 1.148,4.481 1.315,9.148 0.5,14 -0.667,0.667 -1.333,1.333 -2,2 0.596,-5.269 1.096,-10.602 1.5,-16 z m -20,4 c 2.302,1.902 2.969,4.236 2,7 -3.003,-1.678 -3.669,-4.011 -2,-7 z m 6,1 c 2.892,4.102 5.559,8.435 8,13 -0.333,0.333 -0.667,0.667 -1,1 -4.967,-3.17 -7.3,-7.837 -7,-14 z m 32,0 c -0.517,3.722 -1.35,7.388 -2.5,11 -2.986,4.213 -4.319,3.879 -4,-1 1.942,-3.569 4.108,-6.902 6.5,-10 z m 264,0 c 1.086,0.12 1.753,0.787 2,2 0.809,1.486 0.809,2.819 0,4 -4,1 -8,2 -12,3 -1.939,-1.622 -2.272,-3.456 -1,-5.5 3.833,-1.034 7.499,-2.2 11,-3.5 z m 6,2 c 8.577,9.287 11.743,20.287 9.5,33 -1.087,4.266 -2.754,8.266 -5,12 -0.182,-15.149 -1.682,-30.149 -4.5,-45 z m -325,1 c 0.979,1.265 1.979,2.599 3,4 -0.475,3.222 -1.475,6.222 -3,9 -0.808,-0.308 -1.475,-0.808 -2,-1.5 1.148,-3.719 1.814,-7.552 2,-11.5 z m 266,1 c 3.058,2.056 5.391,4.723 7,8 -1.167,4 -2.333,8 -3.5,12 -2.493,-6.594 -3.66,-13.26 -3.5,-20 z m -202,5 c -1.946,3.817 -4.946,5.65 -9,5.5 2.722,-2.358 5.722,-4.191 9,-5.5 z m -59,1 c 1.803,1.981 3.47,4.148 5,6.5 -0.547,0.925 -1.213,1.758 -2,2.5 -1.236,-0.746 -2.57,-1.079 -4,-1 0.333,-2.667 0.667,-5.333 1,-8 z m 314,0 c 1.333,0 2.667,0 4,0 0.174,2.361 0.507,4.694 1,7 -4.591,0.302 -9.091,0.969 -13.5,2 -1.352,-2.094 -1.852,-4.427 -1.5,-7 3.578,-0.049 6.911,-0.715 10,-2 z m -301,1 c 2.109,0.891 4.109,2.058 6,3.5 -0.916,0.374 -1.75,0.874 -2.5,1.5 -0.997,-1.823 -2.164,-3.49 -3.5,-5 z m 49,1 c -1.567,2.783 -3.4,5.449 -5.5,8 0.32,-3.522 2.153,-6.189 5.5,-8 z m -54,1 c 3.347,1.811 5.18,4.478 5.5,8 -2.1,-2.551 -3.933,-5.217 -5.5,-8 z m 237,1 c 1.38,0.462 2.047,1.462 2,3 -5.301,14.162 -5.301,28.328 0,42.5 -0.125,1.627 -0.625,3.127 -1.5,4.5 -9.5,-8.833 -19,-17.667 -28.5,-26.5 9.589,-7.614 18.923,-15.447 28,-23.5 z m -212,1 c 20.534,3.398 26.701,14.731 18.5,34 -10.685,10.301 -21.685,10.635 -33,1 -7.668,-12.86 -5.501,-23.693 6.5,-32.5 2.81,-0.782 5.477,-1.616 8,-2.5 z m 31,2 c 0.262,1.478 -0.071,2.811 -1,4 -0.921,-1.531 -0.588,-2.865 1,-4 z m 210,0 c 6.465,5.964 12.798,12.131 19,18.5 -8.021,0.832 -16.021,0.665 -24,-0.5 2.078,-5.897 3.744,-11.897 5,-18 z m -171,17 c -8.345,-0.891 -16.678,-1.891 -25,-3 -0.308,-2.424 0.026,-4.757 1,-7 2.437,-1.303 4.604,-2.97 6.5,-5 5.812,5.136 11.645,10.136 17.5,15 z m 215,-14 c 1.663,1.938 2.329,4.272 2,7 -4.64,0.897 -9.306,1.064 -14,0.5 -0.906,-1.699 -1.239,-3.533 -1,-5.5 4.528,-0.27 8.861,-0.937 13,-2 z m -321,1 c 5.548,0.844 10.548,2.844 15,6 -2.265,1.147 -4.598,1.314 -7,0.5 -2.855,-2.031 -5.522,-4.197 -8,-6.5 z m 79,0 c -3.086,2.723 -6.42,5.223 -10,7.5 -2.979,0.007 -5.979,-0.327 -9,-1 6.154,-2.746 12.487,-4.913 19,-6.5 z m -84,2 c 3.73,2.383 3.897,5.049 0.5,8 -0.497,-2.646 -0.664,-5.313 -0.5,-8 z m 261,3 c 0.722,0.418 1.222,1.084 1.5,2 0.667,2.667 0.667,5.333 0,8 -0.455,-3.354 -0.955,-6.687 -1.5,-10 z m -255,1 c 1.832,0.64 2.165,1.64 1,3 -0.886,-0.825 -1.219,-1.825 -1,-3 z m 75,1 c 1.273,0.577 1.273,1.243 0,2 -0.963,-0.47 -0.963,-1.137 0,-2 z m 185,3 c 2.467,4.773 2.633,9.773 0.5,15 -0.499,-4.989 -0.666,-9.989 -0.5,-15 z m 49,0 c 4.333,0 8.667,0 13,0 0,1.667 0,3.333 0,5 -4.667,0 -9.333,0 -14,0 -0.134,-1.792 0.199,-3.458 1,-5 z m -303,1 c 1.478,-0.262 2.811,0.071 4,1 -5.619,1.296 -11.286,1.796 -17,1.5 4.515,-0.614 8.848,-1.448 13,-2.5 z m 57,1 c 0.417,-0.624 1.084,-0.957 2,-1 5.309,0.973 10.642,1.806 16,2.5 -6.285,1.05 -12.285,0.55 -18,-1.5 z m -67,6 c 4.146,-1.147 8.48,-1.314 13,-0.5 0.667,0.667 1.333,1.333 2,2 -4.901,-0.701 -9.901,-1.201 -15,-1.5 z m 68,-1 c 4.346,-0.166 8.679,10e-4 13,0.5 -5.045,0.96 -10.045,1.626 -15,2 0.881,-0.708 1.547,-1.542 2,-2.5 z m 38,0 c 3.018,-0.165 6.018,0.002 9,0.5 -8.188,7.022 -16.521,13.856 -25,20.5 -1.837,-1.338 -3.503,-2.838 -5,-4.5 -0.79,-4.153 -1.456,-8.32 -2,-12.5 7.825,-1.162 15.491,-2.495 23,-4 z m 169,2 c 8.007,-0.166 16.007,0 24,0.5 -6.167,6.167 -12.333,12.333 -18.5,18.5 -1.993,-6.307 -3.826,-12.64 -5.5,-19 z m 37,0 c 4.667,0 9.333,0 14,0 0,1.667 0,3.333 0,5 -4.667,0 -9.333,0 -14,0 0,-1.667 0,-3.333 0,-5 z m -93,1 c 1.755,0.572 3.422,1.406 5,2.5 5.476,5.565 11.142,10.898 17,16 -10.769,-2.529 -21.436,-5.696 -32,-9.5 3.353,-3.022 6.687,-6.022 10,-9 z m -221,1 c 1,0 2,0 3,0 0.545,3.498 -0.288,6.498 -2.5,9 -0.498,-2.982 -0.665,-5.982 -0.5,-9 z m 81,0 c 0.985,3.204 1.485,6.537 1.5,10 -2.126,-3.148 -2.626,-6.481 -1.5,-10 z m 38,0 c 4.214,1.875 7.88,4.542 11,8 -10.564,3.804 -21.231,6.971 -32,9.5 7.19,-5.698 14.19,-11.531 21,-17.5 z m -113,1 c 1.699,-0.16 3.366,0.006 5,0.5 -1.59,1.046 -3.09,2.213 -4.5,3.5 -0.49,-1.293 -0.657,-2.627 -0.5,-4 z m 303,0 c 0.661,1.634 0.994,3.467 1,5.5 -0.528,5.526 -1.194,11.026 -2,16.5 -6.552,1.554 -12.886,1.054 -19,-1.5 6.869,-6.702 13.536,-13.535 20,-20.5 z m -308,13 c 4.815,-3.97 9.815,-7.803 15,-11.5 5.009,0.76 5.342,2.76 1,6 -5.256,2.141 -10.59,3.974 -16,5.5 z m 80,0 c -7.297,-0.31 -12.631,-3.643 -16,-10 0.502,-1.021 1.168,-1.188 2,-0.5 4.85,3.363 9.517,6.863 14,10.5 z m 233,-8 c 4.693,0.04 9.359,0.373 14,1 0.396,2.544 -0.271,4.711 -2,6.5 -4.319,0.076 -8.652,-0.091 -13,-0.5 -0.202,-2.45 0.131,-4.783 1,-7 z m -299,13 c 1.897,-3.447 4.063,-6.78 6.5,-10 -0.203,4.412 -2.369,7.746 -6.5,10 z m 53,-3 c -2.721,-1.196 -3.887,-3.196 -3.5,-6 1.421,1.905 2.588,3.905 3.5,6 z m 61,-4 c 1.052,-0.149 2.052,0.017 3,0.5 -1.546,4.019 -2.546,8.185 -3,12.5 -9.766,-0.429 -19.433,-1.596 -29,-3.5 9.874,-2.903 19.541,-6.07 29,-9.5 z m 80,1 c 0.235,-0.597 0.735,-0.93 1.5,-1 10.286,3.04 20.453,6.373 30.5,10 -9.606,1.594 -19.272,2.594 -29,3 -0.398,-4.261 -1.398,-8.261 -3,-12 z m -200,2 c 1.052,-0.149 2.052,0.017 3,0.5 -4.201,6.164 -5.201,5.997 -3,-0.5 z m 10,6 c 1.946,-3.817 4.946,-5.65 9,-5.5 -2.722,2.358 -5.722,4.191 -9,5.5 z m 47,0 c -2.783,-1.567 -5.449,-3.4 -8,-5.5 3.522,0.32 6.189,2.153 8,5.5 z m 247,-5 c 2.666,0.433 5.332,0.933 8,1.5 -2.912,1.373 -5.746,2.873 -8.5,4.5 -0.678,-2.098 -0.511,-4.098 0.5,-6 z m -310,1 c 2.255,3.207 2.421,6.54 0.5,10 -1.149,-2.518 -1.982,-5.184 -2.5,-8 0.743,-0.682 1.409,-1.349 2,-2 z m 23,14 c 0.304,-3.022 0.804,-6.022 1.5,-9 1.202,-3.439 3.369,-4.773 6.5,-4 -2.441,4.565 -5.108,8.898 -8,13 z m 32,0 c -3.398,-4.128 -5.731,-8.795 -7,-14 1.89,-0.203 3.39,0.463 4.5,2 1.154,3.947 1.987,7.947 2.5,12 z m 27,-7 c -1.203,-1.443 -1.703,-3.109 -1.5,-5 1.808,1.533 2.308,3.2 1.5,5 z m -47,-4 c 0.958,0.453 1.792,1.119 2.5,2 0.667,4.667 0.667,9.333 0,14 -0.696,-5.377 -1.53,-10.71 -2.5,-16 z m 8,0 c 0.624,0.417 0.957,1.084 1,2 -2.479,21.22 -3.312,21.22 -2.5,0 0.717,-0.544 1.217,-1.211 1.5,-2 z m 196,33 c 6.727,-9.454 11.893,-19.787 15.5,-31 0.584,2.757 0.25,5.423 -1,8 -3.359,8.744 -8.192,16.411 -14.5,23 z m -157,-29 c 2.887,5.446 5.554,11.113 8,17 -3.985,-4.973 -6.652,-10.64 -8,-17 z m 6,1 c 12.048,0.968 24.048,2.302 36,4 -2.671,11.683 -5.504,23.35 -8.5,35 -13.123,-10.259 -22.29,-23.259 -27.5,-39 z m 156,0 c 2.027,-0.162 4.027,0.005 6,0.5 -6.315,15.799 -16.149,28.966 -29.5,39.5 -3.777,-11.099 -6.943,-22.432 -9.5,-34 0.333,-0.667 0.667,-1.333 1,-2 10.799,-1.281 21.466,-2.614 32,-4 z m -197,1 c 2.137,2.993 4.137,6.16 6,9.5 -2.49,8.139 -4.99,16.306 -7.5,24.5 -1.552,-2.268 -2.385,-4.768 -2.5,-7.5 1.196,-8.876 2.53,-17.709 4,-26.5 z m -30,1 c 1.052,-0.149 2.052,0.017 3,0.5 -0.627,2.343 -1.627,4.51 -3,6.5 -1.982,-2.663 -1.982,-4.997 0,-7 z m 12,1 c 1.276,0.886 1.276,1.886 0,3 -0.587,-0.733 -0.587,-1.733 0,-3 z m -18,2 c 3.915,7.01 4.582,14.343 2,22 -2.494,-5.648 -4.494,-11.482 -6,-17.5 0.844,-2.007 2.177,-3.507 4,-4.5 z m 50,2 c 4.979,4.312 9.646,8.979 14,14 -3.251,1.875 -6.418,3.875 -9.5,6 -2.214,-5.351 -4.048,-10.851 -5.5,-16.5 0.837,-1.011 1.17,-2.178 1,-3.5 z m -39,9 c 1.194,-5.394 4.361,-7.394 9.5,-6 0.49,1.293 0.657,2.627 0.5,4 -3.289,0.874 -6.623,1.541 -10,2 z m -19,-5 c 6.255,19.188 14.755,37.522 25.5,55 3.091,4.514 6.425,8.847 10,13 0.667,1.333 0.667,2.667 0,4 -17.523,-20.207 -29.69,-43.374 -36.5,-69.5 0.243,-0.902 0.577,-1.735 1,-2.5 z m 166,1 c 3.747,2.199 7.08,4.866 10,8 -2.885,8.77 -6.052,17.437 -9.5,26 -0.5,-11.328 -0.667,-22.662 -0.5,-34 z m -5,1 c 1.159,10.826 1.326,21.826 0.5,33 -3.638,-8.443 -7.138,-16.943 -10.5,-25.5 3.215,-2.723 6.548,-5.223 10,-7.5 z m 104,1 c 3.542,3.027 7.376,5.693 11.5,8 1.68,3.697 2.513,7.363 2.5,11 -6.929,-3.602 -13.595,-7.602 -20,-12 2.023,-2.353 4.023,-4.686 6,-7 z m -178,2 c 1.406,0.473 2.073,1.473 2,3 -1.406,-0.473 -2.073,-1.473 -2,-3 z m -59,1 c 1,0 2,0 3,0 -0.028,2.082 0.639,3.916 2,5.5 -4.597,1.642 -9.097,3.476 -13.5,5.5 -0.557,-2.115 -1.391,-4.115 -2.5,-6 3.65,-1.875 7.317,-3.542 11,-5 z m 56,4 c -1.585,-0.502 -2.085,-1.502 -1.5,-3 1.039,0.744 1.539,1.744 1.5,3 z m 163,0 c -0.039,-1.256 0.461,-2.256 1.5,-3 0.585,1.498 0.085,2.498 -1.5,3 z m -193,-1 c 0.996,-0.086 1.829,0.248 2.5,1 0.914,2.164 2.081,4.164 3.5,6 -2.357,2.602 -5.19,4.602 -8.5,6 0.967,-4.22 1.8,-8.553 2.5,-13 z m 126,1 c 10.972,7.156 21.972,14.323 33,21.5 -13.751,9.75 -29.085,14.583 -46,14.5 3.937,-12.146 8.271,-24.146 13,-36 z m 148,0 c 0.739,-0.131 1.406,0.036 2,0.5 -7.928,23.699 -20.094,44.866 -36.5,63.5 -0.667,-1 -0.667,-2 0,-3 15.618,-17.892 27.118,-38.226 34.5,-61 z m -181,1 c 5.095,11.367 10.095,22.867 15,34.5 -16.573,0.087 -31.573,-4.746 -45,-14.5 10.065,-6.69 20.065,-13.357 30,-20 z m -73,2 c 0.997,-0.03 1.664,0.47 2,1.5 1.435,5.906 3.101,11.74 5,17.5 -0.5,0.333 -1,0.667 -1.5,1 -8.477,-2.578 -16.977,-5.078 -25.5,-7.5 6.563,-4.442 13.229,-8.609 20,-12.5 z m 18,0 c 1.762,0.762 2.762,2.096 3,4 -1.762,-0.762 -2.762,-2.096 -3,-4 z m 163,0 c 7.468,3.902 14.802,8.068 22,12.5 -8.43,2.698 -16.93,5.198 -25.5,7.5 -0.5,-0.333 -1,-0.667 -1.5,-1 2.139,-6.224 3.806,-12.557 5,-19 z m 68,0 c -6.212,19.764 -16.045,37.43 -29.5,53 -1.59,-2.15 -2.257,-4.483 -2,-7 10.891,-13.105 19.225,-27.772 25,-44 2.087,-0.897 4.254,-1.564 6.5,-2 z m -310,1 c 4.818,9.963 9.984,19.963 15.5,30 3.333,4.667 6.667,9.333 10,14 0.507,2.335 -0.16,4.335 -2,6 -11.135,-13.928 -19.968,-29.261 -26.5,-46 1.41,-1.069 2.41,-2.403 3,-4 z m 273,1 c 2.477,-0.449 4.477,0.217 6,2 -1.167,2.333 -2.333,4.667 -3.5,7 -0.993,-2.974 -1.826,-5.974 -2.5,-9 z m -256,1 c 1.322,-0.17 2.489,0.163 3.5,1 0.808,2.079 0.641,4.079 -0.5,6 -2.888,1.79 -5.888,2.957 -9,3.5 -1.127,-1.753 -2.127,-3.587 -3,-5.5 2.979,-1.867 5.979,-3.533 9,-5 z m 275,1 c 2.128,-1.129 4.461,-1.296 7,-0.5 -0.691,1.067 -1.191,2.234 -1.5,3.5 -1.78,-1.139 -3.614,-2.139 -5.5,-3 z m -210,0 c 5.86,5.021 11.027,10.354 15.5,16 -6.063,-4.562 -11.23,-9.895 -15.5,-16 z m 141,0 c -4.713,7.046 -10.713,12.713 -18,17 5.974,-5.639 11.974,-11.305 18,-17 z m 60,1 c 4.573,1.287 8.906,3.12 13,5.5 -1.361,1.584 -2.028,3.418 -2,5.5 -4.886,-1.11 -9.219,-3.276 -13,-6.5 0.544,-1.585 1.211,-3.085 2,-4.5 z m -196,20 c -3.761,-0.148 -7.261,-1.148 -10.5,-3 -1.116,-3.32 -1.783,-6.653 -2,-10 4.37,4.202 8.537,8.536 12.5,13 z m 143,-13 c 0.597,0.235 0.93,0.735 1,1.5 -1.036,2.774 -1.869,5.607 -2.5,8.5 -3.689,1.877 -7.523,3.044 -11.5,3.5 4.537,-4.369 8.87,-8.869 13,-13.5 z m -205,1 c 3.201,1.339 3.535,3.006 1,5 -0.952,-1.545 -1.285,-3.212 -1,-5 z m -5,1 c 1.716,1.074 2.716,2.741 3,5 -3.917,5.085 -7.251,4.918 -10,-0.5 2.398,-1.524 4.731,-3.024 7,-4.5 z m 258,0 c 4.691,1.178 9.024,3.178 13,6 -0.526,1.73 -1.526,3.064 -3,4 -3.333,-2 -6.667,-4 -10,-6 -0.792,-1.2 -0.792,-2.533 0,-4 z m -244,6 c 0.235,-0.597 0.735,-0.93 1.5,-1 11.528,3.257 23.028,6.59 34.5,10 4.294,12.186 7.794,24.519 10.5,37 -18.693,-12.193 -34.193,-27.527 -46.5,-46 z m 234,-1 c 1.052,-0.149 2.052,0.017 3,0.5 -12.167,18.833 -27.667,34.333 -46.5,46.5 2.706,-12.481 6.206,-24.814 10.5,-37 11.159,-3.201 22.159,-6.534 33,-10 z m -239,1 c 2.034,1.048 3.367,2.714 4,5 -3.695,2.862 -7.529,5.528 -11.5,8 -1.167,-1.833 -2.333,-3.667 -3.5,-5.5 3.733,-2.523 7.399,-5.023 11,-7.5 z m 176,1 c -9.651,7.733 -20.651,12.899 -33,15.5 -26.407,5.437 -50.407,0.271 -72,-15.5 34.601,21.291 69.601,21.291 105,0 z m 69,0 c 4.548,1.607 8.881,3.774 13,6.5 -1.167,1.833 -2.333,3.667 -3.5,5.5 -3.922,-2.711 -7.756,-5.545 -11.5,-8.5 0.805,-1.113 1.472,-2.279 2,-3.5 z m -239,7 c 1.57,1.375 2.403,3.041 2.5,5 -3.333,2.667 -6.667,5.333 -10,8 -1.529,-1.229 -2.696,-2.729 -3.5,-4.5 3.735,-2.853 7.402,-5.687 11,-8.5 z m 235,0 c 3.648,2.642 7.315,5.309 11,8 -0.692,2.873 -2.359,4.373 -5,4.5 -2.833,-2.167 -5.667,-4.333 -8.5,-6.5 -0.667,-1 -0.667,-2 0,-3 1.045,-0.873 1.878,-1.873 2.5,-3 z m -167,1 c 1.422,0.209 2.755,0.709 4,1.5 -1.852,0.773 -3.186,0.273 -4,-1.5 z m 99,0 c -0.814,1.773 -2.148,2.273 -4,1.5 1.245,-0.791 2.578,-1.291 4,-1.5 z m -122,3 c 6.516,1.34 12.85,3.174 19,5.5 -3.96,6.752 -7.793,13.586 -11.5,20.5 -3.426,-8.365 -5.926,-17.032 -7.5,-26 z m 145,0 c -1.725,8.508 -4.059,16.842 -7,25 -4.164,-6.345 -8.164,-12.845 -12,-19.5 6.194,-2.343 12.527,-4.176 19,-5.5 z m -185,4 c 1.634,0.707 2.968,1.873 4,3.5 -2.667,0.667 -5.333,0.667 -8,0 1.231,-1.405 2.564,-2.571 4,-3.5 z m 229,4 c -2.687,0.164 -5.354,-0.003 -8,-0.5 1.167,-1.167 2.333,-2.333 3.5,-3.5 1.397,1.57 2.897,2.904 4.5,4 z m -168,0 c 5.588,3.917 10.588,8.584 15,14 -8.541,2.592 -17.041,5.259 -25.5,8 3.179,-7.363 6.679,-14.697 10.5,-22 z m 101,0 c 1.933,1.142 3.433,2.808 4.5,5 3.273,5.539 5.94,11.205 8,17 -8.514,-2.56 -17.014,-5.227 -25.5,-8 4.355,-4.687 8.688,-9.354 13,-14 z m -86,3 c 7.002,0.497 14.002,2.164 21,5 -3.818,1.439 -7.651,2.772 -11.5,4 -3.036,-3.204 -6.203,-6.204 -9.5,-9 z m 31,0 c 3.476,-1.143 7.142,-1.31 11,-0.5 -3.603,1.822 -7.27,1.989 -11,0.5 z m 39,-1 c 1.052,-0.149 2.052,0.017 3,0.5 -3.167,3.167 -6.333,6.333 -9.5,9.5 -3.905,-1.102 -7.739,-2.435 -11.5,-4 6.166,-1.833 12.166,-3.833 18,-6 z m -147,2 c 8.586,-0.61 13.586,3.557 15,12.5 -0.009,1.404 -0.509,2.57 -1.5,3.5 -1.564,-3.86 -4.398,-5.86 -8.5,-6 0.393,-4.55 -1.274,-7.883 -5,-10 z m 222,-1 c 1.052,-0.149 2.052,0.017 3,0.5 -3.37,2.697 -4.704,6.197 -4,10.5 -4.989,-0.182 -8.155,2.151 -9.5,7 -1.369,-8.939 2.131,-14.939 10.5,-18 z m -228,3 c 5.313,0.144 7.479,2.81 6.5,8 -2.661,3.466 -5.661,3.799 -9,1 -1.073,-3.6 -0.24,-6.6 2.5,-9 z m 234,0 c 5.234,0.123 7.401,2.79 6.5,8 -3.843,4.229 -7.177,3.895 -10,-1 -0.424,-3.152 0.743,-5.486 3.5,-7 z m -120,7 c 1.333,0 2.667,0 4,0 0.166,8.007 0,16.007 -0.5,24 -6.167,-6.167 -12.333,-12.333 -18.5,-18.5 5.012,-1.996 10.012,-3.829 15,-5.5 z m 7,0 c 6.628,0.933 12.961,2.766 19,5.5 -6.167,6.167 -12.333,12.333 -18.5,18.5 -0.5,-7.993 -0.666,-15.993 -0.5,-24 z m -95,2 c 1.51,1.336 3.177,2.503 5,3.5 -10.953,14.259 -12.619,13.093 -5,-3.5 z m 186,0 c 1.025,3.579 2.191,7.246 3.5,11 1.58,0.926 2.08,1.926 1.5,3 -3.158,-3.328 -6.158,-6.828 -9,-10.5 1.824,-0.66 3.157,-1.827 4,-3.5 z m 31,1 c 1.028,4.411 -0.305,8.245 -4,11.5 -1.902,1.301 -3.902,1.968 -6,2 1.679,-2.565 2.346,-5.398 2,-8.5 4.037,0.324 6.703,-1.342 8,-5 z m -249,1 c 2.115,2.391 4.781,3.724 8,4 -0.085,3.247 0.915,6.081 3,8.5 -6.902,-1.08 -10.568,-5.246 -11,-12.5 z m 16,0 c 3.774,0.608 6.108,2.774 7,6.5 -3.869,7.244 -7.536,7.244 -11,0 0.222,-2.962 1.556,-5.129 4,-6.5 z m 216,0 c 7.611,3.923 7.778,7.923 0.5,12 -5.216,-1.767 -6.55,-5.101 -4,-10 1.302,-0.585 2.469,-1.251 3.5,-2 z m -137,3 c 8.798,8.298 17.465,16.798 26,25.5 -20.793,-0.448 -40.46,-5.448 -59,-15 11.014,-3.666 22.014,-7.166 33,-10.5 z m 60,0 c 11.448,3.194 22.782,6.694 34,10.5 -18.543,9.552 -38.21,14.552 -59,15 8.536,-8.368 16.869,-16.868 25,-25.5 z m -116,1 c 2.229,0.555 3.895,1.889 5,4 -2.5,3.667 -5,7.333 -7.5,11 -2.124,-1.122 -3.957,-2.622 -5.5,-4.5 2.883,-3.376 5.549,-6.876 8,-10.5 z m 172,0 c 2.89,3.422 5.557,7.089 8,11 -0.927,2.446 -2.594,3.279 -5,2.5 -2.087,-3.508 -4.42,-6.842 -7,-10 1.231,-1.405 2.564,-2.571 4,-3.5 z m -8,5 c 3.02,3.522 5.686,7.355 8,11.5 -1.205,1.538 -2.705,2.705 -4.5,3.5 -2.984,-3.29 -5.484,-6.957 -7.5,-11 1.367,-1.34 2.7,-2.673 4,-4 z m -156,1 c 1.923,0.295 3.59,1.128 5,2.5 -2.386,3.948 -4.886,7.781 -7.5,11.5 -1.626,-0.789 -3.126,-1.789 -4.5,-3 2.594,-3.526 4.927,-7.192 7,-11 z m -25,4 c 54.739,40.674 113.405,47.174 176,19.5 9.87,-5.211 19.204,-11.211 28,-18 2.184,-0.442 4.184,0.058 6,1.5 -39.595,32.736 -84.928,44.902 -136,36.5 -29.162,-5.917 -55.162,-18.25 -78,-37 1.566,-0.608 2.9,-1.442 4,-2.5 z m 33,0 c 1.7,0.516 3.033,1.516 4,3 -1.912,4.16 -4.079,8.16 -6.5,12 -1.757,-0.619 -2.924,-1.786 -3.5,-3.5 2.146,-3.793 4.146,-7.626 6,-11.5 z m 140,0 c 2.307,3.937 4.64,7.937 7,12 -1.529,1.688 -3.363,3.021 -5.5,4 -1.696,-4.225 -3.529,-8.392 -5.5,-12.5 1.186,-1.412 2.519,-2.579 4,-3.5 z m -184,4 c 1.101,-1.098 2.434,-1.265 4,-0.5 40.836,34.49 87.836,47.49 141,39 30.594,-5.799 57.594,-18.799 81,-39 1,-0.667 2,-0.667 3,0 -42.705,37.013 -92.038,50.68 -148,41 -30.608,-6.637 -57.608,-20.137 -81,-40.5 z m 51,0 c 2.257,0.462 4.257,1.462 6,3 -1.833,4.333 -3.667,8.667 -5.5,13 -2.087,-1.294 -4.254,-2.461 -6.5,-3.5 2.412,-3.99 4.412,-8.157 6,-12.5 z m 123,1 c 0.996,-0.086 1.829,0.248 2.5,1 1.833,3.667 3.667,7.333 5.5,11 -2.188,2.37 -4.688,3.037 -7.5,2 -1.5,-3.667 -3,-7.333 -4.5,-11 1.401,-1.021 2.735,-2.021 4,-3 z m -114,3 c 2.437,0.717 4.77,1.717 7,3 -1.473,4.421 -3.14,8.755 -5,13 -2.412,-1.077 -4.746,-2.244 -7,-3.5 2.092,-4.015 3.759,-8.181 5,-12.5 z m 105,1 c 2.821,3.21 4.821,7.043 6,11.5 -1.408,2.958 -3.575,3.792 -6.5,2.5 -1.167,-3.5 -2.333,-7 -3.5,-10.5 0.847,-1.771 2.18,-2.937 4,-3.5 z m -95,3 c 2,0.333 4,0.667 6,1 -1.315,4.594 -2.315,9.261 -3,14 -2.816,-0.044 -5.149,-1.044 -7,-3 1.914,-3.823 3.247,-7.823 4,-12 z m 86,0 c 2.129,3.867 3.796,8.034 5,12.5 -1.119,1.876 -2.786,2.709 -5,2.5 -1,-4.667 -2,-9.333 -3,-14 1.291,0.237 2.291,-0.096 3,-1 z m -76,2 c 2.13,0.532 4.13,1.365 6,2.5 -1.162,4.469 -2.329,8.969 -3.5,13.5 -2.343,-0.627 -4.51,-1.627 -6.5,-3 1.343,-4.361 2.677,-8.695 4,-13 z m 68,0 c 0.617,0.111 1.117,0.444 1.5,1 0.94,4.262 2.106,8.428 3.5,12.5 -2.177,1.202 -4.511,1.702 -7,1.5 -0.279,-4.727 -0.946,-9.393 -2,-14 1.599,0.268 2.932,-0.066 4,-1 z m -59,2 c 1.914,0.685 3.914,1.185 6,1.5 -1.031,4.409 -1.698,8.909 -2,13.5 -2,0 -4,0 -6,0 0.408,-5.037 1.074,-10.037 2,-15 z m 50,0 c 0.617,0.111 1.117,0.444 1.5,1 0.706,3.864 1.539,7.697 2.5,11.5 -0.145,0.772 -0.478,1.439 -1,2 -1.973,0.495 -3.973,0.662 -6,0.5 -0.422,-4.379 -1.089,-8.712 -2,-13 1.791,-0.67 3.458,-1.337 5,-2 z m -41,2 c 2.333,0 4.667,0 7,0 -0.499,4.992 -0.999,9.992 -1.5,15 -2.473,-0.62 -4.973,-1.286 -7.5,-2 1.038,-4.269 1.705,-8.602 2,-13 z m 10,0 c 1.667,0 3.333,0 5,0 0,5 0,10 0,15 -2.027,0.162 -4.027,-0.005 -6,-0.5 0.969,-4.737 1.303,-9.57 1,-14.5 z m 9,0 c 1.333,0 2.667,0 4,0 0.664,4.973 0.997,9.973 1,15 -1.667,0 -3.333,0 -5,0 0,-5 0,-10 0,-15 z m 8,0 c 2,0 4,0 6,0 0.498,4.652 0.831,9.319 1,14 -2.292,0.256 -4.459,-0.077 -6.5,-1 -0.499,-4.321 -0.666,-8.654 -0.5,-13 z"
       id="path109" />
  </g>
</svg>
