<?xml version="1.0" encoding="UTF-8" standalone="no"?>
<svg
   version="1.1"
   width="353.98477"
   height="353.72839"
   style="clip-rule:evenodd;fill-rule:evenodd;image-rendering:optimizeQuality;shape-rendering:geometricPrecision;text-rendering:geometricPrecision"
   id="svg113"
   xmlns="http://www.w3.org/2000/svg"
   xmlns:svg="http://www.w3.org/2000/svg">
  <defs
     id="defs117" />
  <g
     id="g107"
     transform="translate(-10.378859,-234.30597)">
    <path
       style="opacity:0.774"
       fill="#E06C9F"
       d="m 171.5,234.5 c 75.623,-2.949 132.789,27.717 171.5,92 29.452,58.843 28.452,117.176 -3,175 C 302.172,560.339 248.006,589.172 177.5,588 99.4288,580.245 46.5955,539.745 19,466.5 4.47211,419.385 8.30544,373.885 30.5,330 c -2.8713,-0.118 -5.538,-0.784 -8,-2 3.4801,-0.301 6.8134,-1.135 10,-2.5 3.7131,-6.93 8.0465,-13.43 13,-19.5 -6.8103,-4.629 -6.3103,-5.462 1.5,-2.5 3.5,-4.167 7,-8.333 10.5,-12.5 -3.8777,-5.589 -7.8777,-11.089 -12,-16.5 0.5016,-1.021 1.1683,-1.188 2,-0.5 5.1667,3.833 10.3333,7.667 15.5,11.5 3.3675,-3.703 7.0342,-7.036 11,-10 0.1575,-2.495 0.3241,-4.828 0.5,-7 1,1.333 2,2.667 3,4 6.2569,-5.087 12.9236,-9.587 20,-13.5 1.5201,-2.596 2.3534,-5.429 2.5,-8.5 1.163,1.785 1.83,3.785 2,6 21.776,-12.094 44.943,-19.427 69.5,-22 z m 9,3 c 46.533,-0.661 87.2,14.172 122,44.5 -3.057,0.256 -6.057,0.756 -9,1.5 -49.928,-38.683 -104.928,-47.85 -165,-27.5 -8.396,3.031 -16.396,6.865 -24,11.5 -2.071,-2.43 -2.404,-5.097 -1,-8 24.172,-13.064 49.839,-20.397 77,-22 z m 1,15 c 1.333,0 2.667,0 4,0 0,5 0,10 0,15 -1.333,0 -2.667,0 -4,0 -1.22,-5.045 -1.22,-10.045 0,-15 z m 8,0 c 2.327,-0.253 4.327,0.414 6,2 -0.939,4.265 -1.272,8.598 -1,13 -1.667,0 -3.333,0 -5,0 0,-5 0,-10 0,-15 z m -20,1 c 2.894,-0.458 5.394,0.209 7.5,2 0.827,4.041 0.66,8.041 -0.5,12 -1.571,0.809 -3.238,1.143 -5,1 -0.422,-5.047 -1.089,-10.047 -2,-15 z m 29,0 c 2.357,-0.163 4.69,0.003 7,0.5 0.457,0.414 0.791,0.914 1,1.5 -0.911,4.288 -1.578,8.621 -2,13 -3.141,0.592 -5.474,-0.408 -7,-3 0.862,-3.953 1.195,-7.953 1,-12 z m -37,1 c 1.667,0 3.333,0 5,0 0.667,4.66 0.833,9.326 0.5,14 -1.699,0.906 -3.533,1.239 -5.5,1 -0.471,-3.856 -1.138,-7.689 -2,-11.5 0.362,-1.434 1.028,-2.601 2,-3.5 z m 48,0 c 2.354,0.338 4.687,0.838 7,1.5 -1.315,4.407 -2.315,8.907 -3,13.5 -1.667,0 -3.333,0 -5,0 0.251,-5.007 0.584,-10.007 1,-15 z m -58,2 c 1.478,-0.262 2.811,0.071 4,1 1,4 2,8 3,12 -1.804,1.268 -3.804,1.935 -6,2 -0.684,-4.224 -1.684,-8.39 -3,-12.5 0.556,-1.011 1.222,-1.844 2,-2.5 z m 68,0 c 2.306,0.493 4.639,0.826 7,1 -0.997,4.661 -1.997,9.327 -3,14 -3.117,0.573 -5.117,-0.594 -6,-3.5 0.862,-3.811 1.529,-7.644 2,-11.5 z m -75,2 c 0.617,0.111 1.117,0.444 1.5,1 0.857,4.096 2.024,8.096 3.5,12 -1.35,1.45 -3.016,2.117 -5,2 -0.924,-4.441 -2.258,-8.775 -4,-13 1.449,-0.672 2.782,-1.339 4,-2 z m 86,1 c 2,0.333 4,0.667 6,1 -0.878,4.969 -2.545,9.635 -5,14 -1.833,-0.552 -3.5,-1.385 -5,-2.5 1.436,-4.142 2.77,-8.309 4,-12.5 z m -96,2 c 1,0 2,0 3,0 0.924,4.441 2.258,8.775 4,13 -2.054,1.756 -4.221,2.09 -6.5,1 -1.402,-3.707 -2.902,-7.374 -4.5,-11 1.401,-1.021 2.735,-2.021 4,-3 z m 106,1 c 2.805,0.318 5.139,1.485 7,3.5 -1.833,4.167 -3.667,8.333 -5.5,12.5 -1.584,-1.361 -3.418,-2.028 -5.5,-2 0.729,-4.851 2.062,-9.518 4,-14 z m -143,1 c 0.1488,3.107 -0.3512,6.107 -1.5,9 -4.6185,2.95 -8.9518,6.284 -13,10 -1.8744,-2.069 -2.8744,-4.402 -3,-7 5.4394,-4.611 11.2727,-8.611 17.5,-12 z m 27,2 c 1.175,-0.219 2.175,0.114 3,1 1.538,3.907 3.204,7.74 5,11.5 -2.246,1.039 -4.413,2.206 -6.5,3.5 -0.707,-1.581 -1.54,-3.081 -2.5,-4.5 1.383,-2.694 1.883,-5.527 1.5,-8.5 -1.252,1.501 -2.252,3.168 -3,5 -0.707,-1.581 -1.54,-3.081 -2.5,-4.5 1.733,-1.189 3.4,-2.356 5,-3.5 z m 127,1 c 2.353,0.84 4.353,2.174 6,4 -2.368,3.874 -4.534,7.874 -6.5,12 -2.053,-0.767 -3.553,-2.1 -4.5,-4 1.673,-4.023 3.339,-8.023 5,-12 z m -137,4 c 2.705,1.19 4.372,3.356 5,6.5 -1.287,2.071 -2.453,4.238 -3.5,6.5 -2.034,-3.206 -3.867,-6.54 -5.5,-10 1.401,-1.021 2.735,-2.021 4,-3 z m 57,1 c 3.682,-0.165 7.348,10e-4 11,0.5 -8,8 -16,16 -24,24 -5.365,-0.118 -10.532,-1.285 -15.5,-3.5 -0.667,-0.667 -0.667,-1.333 0,-2 3.833,-5 7.667,-10 11.5,-15 5.707,-1.666 11.374,-2.999 17,-4 z m 21,1 c 21.076,-0.566 41.076,4.267 60,14.5 -11.247,3.471 -22.58,6.638 -34,9.5 -8.96,-7.624 -17.626,-15.624 -26,-24 z m 68,-1 c 2.145,0.238 3.812,1.238 5,3 -2.016,4.043 -4.516,7.71 -7.5,11 -1.225,-0.362 -2.391,-0.862 -3.5,-1.5 2.412,-3.99 4.412,-8.157 6,-12.5 z m -155,4 c 3.357,2.999 6.024,6.666 8,11 -3.344,5.529 -5.844,5.196 -7.5,-1 -0.27,-2.724 -0.77,-5.391 -1.5,-8 0.363,-0.683 0.696,-1.35 1,-2 z m 163,0 c 1.808,1.407 3.808,2.574 6,3.5 -2.649,4.144 -5.649,7.978 -9,11.5 -1.2,-1.031 -2.534,-1.865 -4,-2.5 2.738,-3.979 5.071,-8.145 7,-12.5 z m -121,1 c 1.879,-0.107 2.212,0.393 1,1.5 -5.178,3.422 -10.178,7.089 -15,11 -3.816,0.401 -7.483,-0.266 -11,-2 8.203,-4.11 16.536,-7.61 25,-10.5 z m -72,2 c 0.9345,1.068 1.2678,2.401 1,4 -1.3734,0.157 -2.7068,-0.01 -4,-0.5 1.2101,-1.039 2.2101,-2.206 3,-3.5 z m 113,1 c 6.798,6.297 13.465,12.797 20,19.5 -6.206,2.301 -12.539,4.135 -19,5.5 0.273,-8.388 -0.06,-16.721 -1,-25 z m -4,1 c 0.992,7.816 1.326,15.816 1,24 -6.473,-1.324 -12.806,-3.157 -19,-5.5 6.203,-6.035 12.203,-12.202 18,-18.5 z m 92,1 c 2.324,0.83 4.324,2.163 6,4 -2.642,3.809 -5.475,7.476 -8.5,11 -1.41,-1.287 -2.91,-2.454 -4.5,-3.5 2.586,-3.736 4.919,-7.57 7,-11.5 z m -204,5 c 10.8842,0.072 15.7176,5.738 14.5,17 -1.6058,-4.392 -4.7724,-6.725 -9.5,-7 0.9271,-4.814 -0.7396,-8.148 -5,-10 z m 226,0 c -2.15,2.972 -3.15,6.305 -3,10 -4.036,0.52 -7.203,2.52 -9.5,6 -0.853,-9.308 3.314,-14.641 12.5,-16 z m -210,1 c 4.8411,2.033 6.0078,5.366 3.5,10 -1.3726,-2.912 -2.8726,-5.746 -4.5,-8.5 0.556,-0.383 0.8893,-0.883 1,-1.5 z m 8,14 c 0.1706,-4.696 0.6706,-9.363 1.5,-14 0.6667,4.333 0.6667,8.667 0,13 -0.3826,0.556 -0.8826,0.889 -1.5,1 z m -30,-13 c 5.8034,0.31 7.9701,3.31 6.5,9 -2.8549,3.564 -5.8549,3.564 -9,0 -1.0729,-3.6 -0.2395,-6.6 2.5,-9 z m 237,0 c 8.659,3.316 8.993,7.316 1,12 -4.577,-1.421 -6.077,-4.421 -4.5,-9 1.145,-1.136 2.312,-2.136 3.5,-3 z m -201,1 c 1.279,3.8 1.779,7.8 1.5,12 -1.424,-3.797 -1.924,-7.797 -1.5,-12 z m 13,3 c -0.357,3.763 -1.19,7.43 -2.5,11 -1.11,1.537 -2.61,2.203 -4.5,2 1.09,-5.068 3.424,-9.401 7,-13 z m 145,0 c 19.667,11 35,26.333 46,46 -12.075,-3.019 -24.075,-6.352 -36,-10 -3.959,-11.837 -7.292,-23.837 -10,-36 z m 22,1 c 0.317,3.072 -0.016,6.072 -1,9 -4.712,-3.077 -4.378,-6.077 1,-9 z m -33,2 c 1.025,0.397 1.192,1.063 0.5,2 -4,6.667 -8,13.333 -12,20 -4.682,-4.515 -9.182,-9.181 -13.5,-14 8.378,-2.838 16.711,-5.505 25,-8 z m 67,1 c 32.729,37.355 47.229,81.022 43.5,131 -3.222,31.757 -14.222,60.424 -33,86 0.649,-5.269 1.316,-10.602 2,-16 28.067,-48.812 31.733,-99.478 11,-152 -6.41,-14.502 -14.577,-27.836 -24.5,-40 0.907,-2.921 1.24,-5.921 1,-9 z m -259,10 c -2.3421,-0.004 -4.3421,-0.837 -6,-2.5 1.3804,-1.925 2.8804,-3.759 4.5,-5.5 0.567,2.668 1.067,5.334 1.5,8 z m 3,-7 c 2.5259,2.432 5.5259,4.098 9,5 0,2.667 0,5.333 0,8 -5.7287,-2.461 -8.7287,-6.794 -9,-13 z m 76,0 c 4.854,0.713 9.52,2.046 14,4 -0.864,1.697 -2.197,2.863 -4,3.5 -4.371,1.401 -8.704,2.901 -13,4.5 -1.196,-1.059 -1.863,-2.393 -2,-4 1.657,-2.66 3.324,-5.327 5,-8 z m 116,0 c 1.086,0.12 1.753,0.787 2,2 2.659,8.306 4.826,16.64 6.5,25 -6.527,-2.176 -13.027,-4.342 -19.5,-6.5 4.073,-6.649 7.74,-13.482 11,-20.5 z m -177,1 c 5.2945,-0.537 7.7945,1.797 7.5,7 -2.8235,4.895 -6.1568,5.229 -10,1 -0.9818,-3.275 -0.1485,-5.941 2.5,-8 z m 217,0 c 8.318,0.487 9.985,3.987 5,10.5 -5.299,1.033 -7.799,-1.134 -7.5,-6.5 0.662,-1.484 1.496,-2.817 2.5,-4 z m 20,0 c -0.522,6.395 -3.856,10.395 -10,12 1.429,-2.808 2.095,-5.808 2,-9 3.035,-0.039 5.702,-1.039 8,-3 z m -190,2 c -0.923,3.764 -3.256,5.264 -7,4.5 2.234,-1.75 4.568,-3.25 7,-4.5 z m 5,2 c -1.567,2.783 -3.4,5.449 -5.5,8 0.32,-3.522 2.153,-6.189 5.5,-8 z m 32,1 c 4.105,1.026 8.105,2.359 12,4 -6.88,2.576 -13.88,4.409 -21,5.5 3.204,-3.036 6.204,-6.203 9,-9.5 z m 54,0 c 4.07,2.56 7.736,5.727 11,9.5 -7.562,-1.058 -14.895,-3.058 -22,-6 3.872,-0.904 7.539,-2.07 11,-3.5 z m -119,2 c 17.828,-1.002 26.661,7.331 26.5,25 -3.7,12.102 -11.867,17.602 -24.5,16.5 -15.4909,-5.486 -20.3242,-15.986 -14.5,-31.5 3.1908,-4.663 7.3575,-7.997 12.5,-10 z m -47,1 c 1.9258,0.742 3.7591,1.742 5.5,3 -1.3206,4.298 -3.4873,8.298 -6.5,12 -2.9619,1.534 -5.9619,1.867 -9,1 3.3442,-5.361 6.6776,-10.695 10,-16 z m 79,5 c 0.64,-1.832 1.64,-2.165 3,-1 -0.825,0.886 -1.825,1.219 -3,1 z m 14,-1 c 1.879,-0.107 2.212,0.393 1,1.5 -2.828,2.248 -5.828,4.248 -9,6 -3.134,0.79 -6.134,0.457 -9,-1 5.805,-2.097 11.471,-4.263 17,-6.5 z m 44,1 c 3.068,0.047 6.068,0.547 9,1.5 -4,0.667 -8,0.667 -12,0 1.237,-0.232 2.237,-0.732 3,-1.5 z m 125,1 c -2.671,2.661 -5.671,4.994 -9,7 -1.667,-1 -3,-2.333 -4,-4 4.458,-0.639 8.791,-1.639 13,-3 z m -244,1 c 4.2462,0.267 8.2462,1.267 12,3 -1.0594,1.196 -2.3927,1.863 -4,2 -3.2157,-0.9 -5.8824,-2.567 -8,-5 z m 248,1 c 1.433,1.333 2.767,2.833 4,4.5 -3.744,2.955 -7.578,5.789 -11.5,8.5 -1.529,-1.229 -2.696,-2.729 -3.5,-4.5 4.097,-2.37 7.764,-5.203 11,-8.5 z m -254,1 c 9.4947,3.22 9.1614,4.72 -1,4.5 -0.3333,-0.333 -0.6667,-0.667 -1,-1 0.805,-1.113 1.4717,-2.279 2,-3.5 z m 187,24 c -26.39,-20.311 -55.556,-25.644 -87.5,-16 -0.5,-0.5 -1,-1 -1.5,-1.5 29.086,-9.225 56.419,-5.559 82,11 2.788,1.719 5.121,3.885 7,6.5 z m -174,-18 c 2.3418,0.275 2.3418,1.108 0,2.5 -4.3333,0.667 -8.6667,0.667 -13,0 4.5472,-0.429 8.8805,-1.262 13,-2.5 z m 55,1 c 4.696,0.171 9.363,0.671 14,1.5 -2.333,0.167 -4.667,0.333 -7,0.5 -2.769,-0.029 -5.103,-0.695 -7,-2 z m 48,0 c 3.072,-0.317 6.072,0.016 9,1 -3.731,11.692 -7.564,23.359 -11.5,35 -11.588,-7.212 -23.421,-14.046 -35.5,-20.5 3.741,-2.732 7.741,-5.066 12,-7 9.793,-1.112 19.46,-2.779 29,-5 -3.076,-0.346 -6.076,-1.012 -9,-2 2.208,-0.191 4.208,-0.691 6,-1.5 z m 13,0 c 17.698,0.067 33.698,5.233 48,15.5 -11.583,6.707 -23.083,13.541 -34.5,20.5 -4.802,-11.907 -9.302,-23.907 -13.5,-36 z m 129,1 c 1.052,-0.149 2.052,0.017 3,0.5 0.757,1.512 1.757,2.846 3,4 -3.832,2.75 -7.832,5.25 -12,7.5 -1.211,-1.374 -2.211,-2.874 -3,-4.5 3.039,-2.51 6.039,-5.01 9,-7.5 z m -79,4 c -1.755,-0.572 -3.422,-1.406 -5,-2.5 2.428,-0.747 4.094,0.086 5,2.5 z m -173,0 c 2.3568,-0.163 4.6902,0.003 7,0.5 1.2414,1.487 0.7414,2.32 -1.5,2.5 -3.1514,-0.593 -6.318,-1.093 -9.5,-1.5 1.5581,-0.21 2.8915,-0.71 4,-1.5 z m -32,1 c 2.7165,0.178 5.3832,0.678 8,1.5 -27.35,54.899 -26.5167,109.399 2.5,163.5 4.3333,6.333 8.6667,12.667 13,19 0.1141,3.333 -0.2192,6.666 -1,10 C 8.94198,464.571 1.44198,399.904 33.5,330.5 Z m 94,0 c 3.682,-0.165 7.348,10e-4 11,0.5 -3.973,0.998 -7.973,1.331 -12,1 0.556,-0.383 0.889,-0.883 1,-1.5 z m -78,2 c 4.187,2.672 8.5203,5.172 13,7.5 -1.2741,1.221 -2.7741,2.054 -4.5,2.5 -3.7208,-1.443 -7.2208,-3.277 -10.5,-5.5 1.0822,-1.33 1.7488,-2.83 2,-4.5 z m 136,0 c 1.25,0.077 2.083,0.744 2.5,2 6.068,16.372 12.235,32.706 18.5,49 18.949,1.713 37.949,2.88 57,3.5 -14.333,12.333 -28.667,24.667 -43,37 3,11 6,22 9,33 -3.452,3.734 -6.285,7.9 -8.5,12.5 -11.41,-7.744 -23.077,-15.078 -35,-22 -15.568,9.869 -31.068,19.869 -46.5,30 2.839,-16.704 6.672,-33.371 11.5,-50 0.667,-1.667 0.667,-3.333 0,-5 -14.444,-11.476 -28.611,-23.309 -42.5,-35.5 5.584,-0.806 11.084,-0.639 16.5,0.5 1.399,-0.727 2.899,-1.227 4.5,-1.5 13.359,-0.223 26.693,-0.89 40,-2 5.633,-17.067 10.967,-34.233 16,-51.5 z m 68,0 c 3.447,0.314 6.78,1.148 10,2.5 1.542,3.334 2.542,6.834 3,10.5 -4.667,-4 -9,-8.333 -13,-13 z m -192,3 c 0.8864,-1.276 1.8864,-1.276 3,0 -0.9246,1.062 -1.9246,1.062 -3,0 z m 262,-1 c 2.621,0.621 4.288,2.288 5,5 -4.086,2.46 -8.253,4.793 -12.5,7 -1.301,-1.902 -1.968,-3.902 -2,-6 3.34,-1.863 6.507,-3.863 9.5,-6 z m -187,1 c -1.165,1.916 -2.832,2.749 -5,2.5 1.41,-1.372 3.077,-2.205 5,-2.5 z m -79,13 c 4.4829,-3.637 9.1496,-7.137 14,-10.5 1.8453,-1.128 3.8453,-1.628 6,-1.5 -0.2811,2.463 -1.2811,4.63 -3,6.5 -5.6651,1.944 -11.3318,3.778 -17,5.5 z m 82,0 c -7.528,-0.657 -13.195,-4.157 -17,-10.5 1,-0.667 2,-0.667 3,0 4.85,3.363 9.517,6.863 14,10.5 z m 133,-11 c 9.314,2.496 18.648,4.996 28,7.5 -7,4.167 -14,8.333 -21,12.5 -0.586,-0.209 -1.086,-0.543 -1.5,-1 -1.941,-6.322 -3.775,-12.655 -5.5,-19 z m -227,4 c 3.2568,0.962 6.2568,2.462 9,4.5 -1.6161,0.615 -2.9495,1.615 -4,3 -7.5837,0.653 -9.2504,-1.847 -5,-7.5 z m 201,0 c 4.667,2.667 8.333,6.333 11,11 -4,-3.333 -7.667,-7 -11,-11 z m -7,1 c 14.053,10.084 24.053,23.418 30,40 -2,0.333 -4,0.667 -6,1 -11.567,-0.537 -23.067,-1.203 -34.5,-2 2.971,-13.088 6.471,-26.088 10.5,-39 z m -165,8 c 1.2502,-2.432 2.7502,-4.766 4.5,-7 0.0317,3.168 -1.4683,5.501 -4.5,7 z m 54,3 c -4.131,-2.254 -6.297,-5.588 -6.5,-10 2.437,3.22 4.603,6.553 6.5,10 z m 200,-10 c 0.996,-0.086 1.829,0.248 2.5,1 0.45,2.019 1.283,3.852 2.5,5.5 -4.416,2.863 -9.082,4.363 -14,4.5 -0.574,-1.559 -1.24,-3.059 -2,-4.5 3.73,-2.193 7.397,-4.36 11,-6.5 z m -17,4 c 10.308,18.227 15.474,37.893 15.5,59 -8.5,-8.5 -17,-17 -25.5,-25.5 3.234,-11.203 6.568,-22.369 10,-33.5 z m -83,1 c 1.025,0.397 1.192,1.063 0.5,2 -6.667,9.333 -13.333,18.667 -20,28 -2.02,-4.386 -3.853,-8.886 -5.5,-13.5 8.22,-5.729 16.553,-11.229 25,-16.5 z m 73,0 c 0.597,0.235 0.93,0.735 1,1.5 -2.115,8.342 -4.615,16.509 -7.5,24.5 -4.5,-4.5 -9,-9 -13.5,-13.5 6.899,-3.941 13.566,-8.108 20,-12.5 z m -225,7 c 1.8113,-3.347 4.478,-5.18 8,-5.5 -2.5507,2.1 -5.2173,3.933 -8,5.5 z m 49,1 c -3.447,-1.897 -6.78,-4.063 -10,-6.5 4.412,0.203 7.746,2.369 10,6.5 z m -63,-6 c 2.4076,0.815 3.2409,2.481 2.5,5 -13.1671,20.686 -14.8337,19.686 -5,-3 0.9947,-0.566 1.828,-1.233 2.5,-2 z m 21,15 c -0.3803,-6.197 1.7864,-11.197 6.5,-15 0.6924,0.525 1.1924,1.192 1.5,2 -2.7281,4.373 -5.3948,8.706 -8,13 z m 26,-15 c 1.221,0.528 2.387,1.195 3.5,2 1.339,4.678 2.339,9.344 3,14 -2.333,-4 -4.667,-8 -7,-12 -0.579,-1.428 -0.412,-2.762 0.5,-4 z m 28,7 c -1.483,-1.594 -2.983,-3.26 -4.5,-5 -0.688,-0.832 -0.521,-1.498 0.5,-2 2.818,1.429 4.151,3.762 4,7 z m -97,-6 c 1.4778,-0.262 2.8112,0.071 4,1 -1.3651,1.441 -2.8651,2.774 -4.5,4 -0.3845,-1.697 -0.2178,-3.363 0.5,-5 z m 191,1 c -1.397,9.263 -3.73,18.596 -7,28 -4.295,1.161 -8.629,1.328 -13,0.5 6.886,-9.38 13.553,-18.88 20,-28.5 z m 26,0 c 17.286,20.036 24.453,43.37 21.5,70 -0.554,5.944 -2.054,11.611 -4.5,17 8.244,-31.507 2.577,-60.507 -17,-87 z m -117,2 c 0.397,-1.025 1.063,-1.192 2,-0.5 7.712,8.71 15.045,17.71 22,27 -3.333,0.667 -6.667,0.667 -10,0 -3.288,-4.077 -6.455,-8.244 -9.5,-12.5 -1.519,-4.774 -3.019,-9.441 -4.5,-14 z m -37,0 c 0.647,0.774 0.98,1.774 1,3 -0.5,3 -1,6 -1.5,9 -1.849,-4.241 -1.682,-8.241 0.5,-12 z m 229,0 c 1.175,-0.219 2.175,0.114 3,1 0.574,1.559 1.24,3.059 2,4.5 -4.403,2.024 -8.903,3.858 -13.5,5.5 -0.837,-1.851 -1.671,-3.684 -2.5,-5.5 3.692,-1.942 7.358,-3.776 11,-5.5 z m -284,1 c 2.2505,-0.319 4.2505,0.181 6,1.5 -1.3613,1.584 -2.028,3.418 -2,5.5 -4.0701,-0.856 -8.0701,-2.023 -12,-3.5 2.8093,-1.093 5.476,-2.26 8,-3.5 z m 48,0 c 0.6174,0.111 1.1174,0.444 1.5,1 0.6667,4.333 0.6667,8.667 0,13 -0.8294,-4.637 -1.3294,-9.304 -1.5,-14 z m 22,2 c 7.937,5.423 15.77,11.09 23.5,17 0.986,2.278 1.82,4.611 2.5,7 -6.667,1.333 -13.333,1.333 -20,0 -2.316,-7.929 -4.316,-15.929 -6,-24 z m 33,0 c 2.998,0.842 5.998,1.342 9,1.5 -0.556,-0.383 -0.889,-0.883 -1,-1.5 3.858,1.847 7.692,3.847 11.5,6 -0.304,5.25 -1.637,10.25 -4,15 -5.673,-6.703 -10.84,-13.703 -15.5,-21 z m -72,1 c 0.5967,0.235 0.9301,0.735 1,1.5 -0.9113,3.145 -1.7446,6.312 -2.5,9.5 -3.4188,-4.554 -2.9188,-8.22 1.5,-11 z m 10,6 c 0.2377,-2.145 1.2377,-3.812 3,-5 0.5161,2.233 -0.4839,3.9 -3,5 z m 180,-4 c 1.916,1.165 2.749,2.832 2.5,5 -1.372,-1.41 -2.205,-3.077 -2.5,-5 z m -233,1 c 4.2676,1.59 8.6009,3.09 13,4.5 0.6383,1.707 0.6383,3.54 0,5.5 -4.4655,-0.376 -8.7989,-1.376 -13,-3 -0.8635,-2.271 -0.8635,-4.605 0,-7 z m 72,1 c 0.597,0.235 0.93,0.735 1,1.5 -0.696,1.893 -1.53,3.726 -2.5,5.5 -0.135,-2.422 0.365,-4.755 1.5,-7 z m 228,2 c 2.923,0.663 3.59,2.33 2,5 -4.231,1.474 -8.564,2.474 -13,3 0.17,-1.322 -0.163,-2.489 -1,-3.5 4.11,-1.515 8.11,-3.015 12,-4.5 z m -268,2 c 2.0999,5.073 3.2666,10.406 3.5,16 -8,8 -16,16 -24,24 -0.656,-9.241 0.5107,-18.241 3.5,-27 5.9152,-4.111 11.5819,-8.444 17,-13 z m 43,1 c 3.434,4.68 6.767,9.513 10,14.5 -5.28,1.095 -10.613,1.595 -16,1.5 1.437,-5.542 3.437,-10.875 6,-16 z m -78,5 c 4.0948,0.308 8.0948,1.141 12,2.5 2.6604,2.543 2.3271,4.709 -1,6.5 -3.9444,-1.056 -7.9444,-1.723 -12,-2 0.4926,-2.306 0.8259,-4.639 1,-7 z m 303,1 c 1.667,0 3.333,0 5,0 -0.143,1.762 0.191,3.429 1,5 -4.781,1.93 -9.615,2.597 -14.5,2 -0.781,-1.444 -0.614,-2.777 0.5,-4 2.782,-1.016 5.449,-2.016 8,-3 z m -246,1 c -0.4971,7.002 -2.1638,14.002 -5,21 -1.4838,-3.595 -2.8171,-7.262 -4,-11 3.0222,-3.353 6.0222,-6.687 9,-10 z m 193,0 c 3.464,2.962 6.797,6.129 10,9.5 -1.421,4.174 -2.921,8.341 -4.5,12.5 -2.152,-7.274 -3.985,-14.608 -5.5,-22 z m -136,4 c 4.866,2.021 4.866,3.021 0,3 0,-1 0,-2 0,-3 z m -116,4 c 4.3134,0.831 8.6467,1.664 13,2.5 0.9061,1.699 1.2394,3.533 1,5.5 -4.6772,-0.335 -9.3439,-0.835 -14,-1.5 -0.4863,-2.027 -0.4863,-4.193 0,-6.5 z m 310,0 c 1.149,0.291 1.816,1.124 2,2.5 0.666,1.669 0.666,3.169 0,4.5 -4.61,0.993 -9.277,1.66 -14,2 0.239,-1.967 -0.094,-3.801 -1,-5.5 4.474,-1.12 8.807,-2.286 13,-3.5 z m -72,4 c 1.466,0.847 2.3,2.18 2.5,4 3.809,15.613 3.142,30.946 -2,46 -9.798,-8.129 -19.298,-16.629 -28.5,-25.5 9.526,-8.032 18.86,-16.198 28,-24.5 z m -166,2 c 9.972,7.337 19.639,15.171 29,23.5 -9.592,7.714 -19.092,15.547 -28.5,23.5 -4.3942,-15.598 -4.5609,-31.265 -0.5,-47 z m -29,2 c 3.0543,5.847 5.0543,12.18 6,19 -8.0069,0.166 -16.0069,0 -24,-0.5 6.2028,-6.035 12.2028,-12.202 18,-18.5 z m 224,0 c 7.077,5.571 13.744,11.738 20,18.5 -8.333,0.667 -16.667,0.667 -25,0 2.211,-6.011 3.878,-12.178 5,-18.5 z m -268,2 c 3.9899,0.499 7.9899,0.999 12,1.5 2.4826,2.308 2.6493,4.808 0.5,7.5 -4.4014,-0.967 -8.9014,-1.3 -13.5,-1 -0.2214,-2.779 0.112,-5.446 1,-8 z m 66,0 c 0.9778,0.311 1.6445,0.978 2,2 -2.9698,14.321 -2.3031,28.488 2,42.5 -0.333,0.5 -0.6667,1 -1,1.5 -4.8421,-15.087 -5.8421,-30.42 -3,-46 z m 243,1 c 1.667,0 3.333,0 5,0 0.493,2.306 0.826,4.639 1,7 -5.037,-0.087 -10.037,0.246 -15,1 -0.256,-2.292 0.077,-4.459 1,-6.5 2.865,-0.183 5.531,-0.683 8,-1.5 z m -310,10 c 4.6408,0.627 9.3075,0.96 14,1 0,1.667 0,3.333 0,5 -5.044,0.327 -10.044,-0.006 -15,-1 0.8094,-1.571 1.1427,-3.238 1,-5 z m 314,0 c 1.808,1.418 2.475,3.418 2,6 -4.667,0 -9.333,0 -14,0 0,-1.667 0,-3.333 0,-5 4.202,0.317 8.202,-0.017 12,-1 z m -253,2 c 1.1453,3.811 1.3119,7.811 0.5,12 -0.5,-2 -1,-4 -1.5,-6 0.6556,-1.953 0.9889,-3.953 1,-6 z m 193,1 c 2.356,3.12 2.522,6.454 0.5,10 -0.498,-3.317 -0.665,-6.65 -0.5,-10 z m -255,6 c 5,0 10,0 15,0 0,1.667 0,3.333 0,5 -4.6408,0.627 -9.3075,0.96 -14,1 -0.3333,-2 -0.6667,-4 -1,-6 z m 27,1 c 8.1499,-0.993 16.4832,-1.326 25,-1 -1.1175,6.854 -2.9509,13.521 -5.5,20 -6.3685,-6.536 -12.8685,-12.869 -19.5,-19 z m 238,0 c 7.853,-1.043 15.853,-0.876 24,0.5 -5.848,6.015 -11.848,11.848 -18,17.5 -2.231,-6.025 -4.231,-12.025 -6,-18 z m 38,-1 c 4.667,0 9.333,0 14,0 0,2 0,4 0,6 -4.714,0.147 -9.381,-0.186 -14,-1 0,-1.667 0,-3.333 0,-5 z m -94,1 c 7.462,6.292 14.795,12.792 22,19.5 -10.353,-2.558 -20.686,-5.558 -31,-9 -0.333,-0.333 -0.667,-0.667 -1,-1 3.599,-2.952 6.933,-6.118 10,-9.5 z m -125,20 c 6.81,-5.969 13.81,-11.802 21,-17.5 1.333,-0.667 2.667,-0.667 4,0 2.371,2.706 5.037,5.039 8,7 -10.749,4.194 -21.749,7.694 -33,10.5 z m 214,-18 c 0.582,16.062 -2.251,31.729 -8.5,47 -3.688,-5.188 -8.188,-9.522 -13.5,-13 -1.303,-2.543 -2.303,-5.21 -3,-8 8.355,-8.687 16.688,-17.354 25,-26 z m -279,1 c 8.2983,7.798 16.465,15.798 24.5,24 -1.8875,11.882 -4.8875,23.548 -9,35 -9.7021,-18.475 -14.8688,-38.142 -15.5,-59 z m -18,5 c 4.6785,-0.166 9.3452,10e-4 14,0.5 0.9061,1.699 1.2394,3.533 1,5.5 -4.9335,0.22 -9.7669,0.887 -14.5,2 -0.4974,-2.646 -0.6641,-5.313 -0.5,-8 z m 301,0 c 4.733,-0.277 9.4,0.057 14,1 0.863,2.271 0.863,4.605 0,7 -4.652,-0.498 -9.319,-0.831 -14,-1 0,-2.333 0,-4.667 0,-7 z m -239,27 c -3.6456,-2.979 -6.979,-6.312 -10,-10 1.4762,-3.904 2.6428,-7.904 3.5,-12 2.78,7.113 4.9467,14.447 6.5,22 z m 197,-22 c 0.617,0.111 1.117,0.444 1.5,1 0.833,3.333 1.667,6.667 2.5,10 -0.969,3.487 -3.302,4.82 -7,4 0.843,-5.038 1.843,-10.038 3,-15 z m -144,1 c 1.086,0.12 1.753,0.787 2,2 -0.773,3.596 -1.773,7.096 -3,10.5 -9.427,-0.012 -18.761,-1.012 -28,-3 9.834,-3.033 19.5,-6.2 29,-9.5 z m 81,0 c 10.857,2.73 21.523,6.063 32,10 -9.606,1.594 -19.272,2.594 -29,3 -0.843,-4.373 -1.843,-8.707 -3,-13 z m -182,3 c 0.6174,0.111 1.1174,0.444 1.5,1 0.4955,1.973 0.6621,3.973 0.5,6 -4.6667,0.667 -9.3333,1.333 -14,2 -0.4926,-2.306 -0.8259,-4.639 -1,-7 4.5275,-0.27 8.8609,-0.937 13,-2 z m 286,1 c 5.07,0.425 10.07,1.259 15,2.5 -0.906,1.699 -1.239,3.533 -1,5.5 -4.647,-0.796 -9.314,-1.463 -14,-2 0,-2 0,-4 0,-6 z m -202,49 c -3.567,-2.057 -6.734,-4.723 -9.5,-8 -7.948,-9.554 -14.115,-20.22 -18.5,-32 0.3333,-0.333 0.667,-0.667 1,-1 6.236,15.554 15.236,29.221 27,41 z m -83,-40 c 2.4689,1.107 3.4689,3.107 3,6 -4.7394,0.685 -9.4061,1.685 -14,3 -0.7309,-2.099 -0.7309,-4.099 0,-6 3.8174,-0.889 7.4841,-1.889 11,-3 z m 61,0 c 12.372,1.041 24.705,2.375 37,4 -2.53,11.787 -5.53,23.454 -9,35 -13.03,-10.41 -22.363,-23.41 -28,-39 z m 223,0 c 4.893,0.708 9.56,2.042 14,4 -0.535,2.161 -1.368,4.161 -2.5,6 -3.746,-1.359 -7.579,-2.526 -11.5,-3.5 -1.268,-2.163 -1.268,-4.33 0,-6.5 z m -85,2 c 2.357,-0.163 4.69,0.003 7,0.5 -6.006,2.332 -11.34,5.666 -16,10 -0.948,0.483 -1.948,0.649 -3,0.5 -0.12,-2.98 -0.787,-5.813 -2,-8.5 4.772,-0.983 9.438,-1.817 14,-2.5 z m 23,1 c 27.953,-1.251 46.786,11.415 56.5,38 4.067,15.198 2.067,29.531 -6,43 -0.092,-10.593 -5.259,-17.259 -15.5,-20 9.419,-26.316 1.752,-45.816 -23,-58.5 -3.947,-1.154 -7.947,-1.987 -12,-2.5 z m -5,3 c 24.627,1.794 38.294,14.961 41,39.5 -0.518,6.573 -2.351,12.74 -5.5,18.5 -8.491,1.824 -13.658,6.991 -15.5,15.5 -24.397,9.536 -42.564,2.703 -54.5,-20.5 -5.944,-29.194 5.556,-46.861 34.5,-53 z m -183,2 c 5.2537,3.583 9.9203,7.916 14,13 -6.2131,4.362 -12.7131,8.362 -19.5,12 1.3439,-8.382 3.1772,-16.715 5.5,-25 z m -32,1 c 2.5838,0.548 3.5838,2.215 3,5 -4.3296,0.832 -8.4963,2.165 -12.5,4 -1.6016,-1.763 -2.1016,-3.596 -1.5,-5.5 3.9273,-0.724 7.594,-1.891 11,-3.5 z m 279,1 c 4.661,0.997 9.327,1.997 14,3 -0.143,2.597 -0.977,4.931 -2.5,7 -4.004,-1.835 -8.17,-3.168 -12.5,-4 0.333,-2 0.667,-4 1,-6 z m -138,2 c 3.852,2.425 7.519,5.091 11,8 -3.598,8.961 -7.098,17.961 -10.5,27 -0.5,-11.662 -0.667,-23.329 -0.5,-35 z m -5,1 c 1.329,5.46 1.996,11.293 2,17.5 -0.167,5.833 -0.333,11.667 -0.5,17.5 -3.833,-9 -7.667,-18 -11.5,-27 3.364,-2.675 6.697,-5.342 10,-8 z m -133,4 c 1.7699,1.356 3.1032,3.189 4,5.5 -4.3333,1.833 -8.6667,3.667 -13,5.5 -1.3772,-1.789 -2.3772,-3.789 -3,-6 4.0906,-1.69 8.0906,-3.356 12,-5 z m 56,5 c -1.916,-1.165 -2.749,-2.832 -2.5,-5 1.372,1.41 2.205,3.077 2.5,5 z m 217,-3 c 4.793,1.265 9.459,2.931 14,5 -0.694,2.588 -1.86,4.921 -3.5,7 -4.273,-1.979 -8.44,-4.145 -12.5,-6.5 1.361,-1.584 2.028,-3.418 2,-5.5 z m -121,2 c 5.802,4.072 11.802,7.906 18,11.5 -3.316,6.764 -4.982,13.93 -5,21.5 -7.249,1.716 -14.583,3.05 -22,4 -1.333,-0.333 -2.667,-0.667 -4,-1 4.347,-12.021 8.68,-24.021 13,-36 z m -33,1 c 5.224,11.461 10.224,23.128 15,35 -16.434,-0.088 -31.434,-4.922 -45,-14.5 10.178,-6.696 20.178,-13.53 30,-20.5 z m -73,2 c 2.702,6.609 5.035,13.442 7,20.5 -9.4667,-2.035 -18.8,-4.702 -28,-8 7.0633,-4.193 14.0633,-8.359 21,-12.5 z m -42,2 c 1.5983,1.895 2.9316,4.062 4,6.5 -4.2453,2.039 -8.412,4.206 -12.5,6.5 -1.6398,-2.079 -2.8064,-4.412 -3.5,-7 4.0608,-2.03 8.0608,-4.03 12,-6 z m 270,5 c 3.016,1.062 6.016,2.229 9,3.5 -1.294,2.087 -2.461,4.254 -3.5,6.5 -2.857,-2.709 -4.691,-6.043 -5.5,-10 z m -265,5 c 1.2255,1.437 2.2255,3.104 3,5 -3.9166,2.208 -7.75,4.541 -11.5,7 -2.1152,-1.562 -3.1152,-3.562 -3,-6 3.8473,-2.172 7.6807,-4.172 11.5,-6 z m 50,1 c 4.464,3.963 8.798,8.13 13,12.5 -3.347,-0.217 -6.68,-0.884 -10,-2 -1.708,-3.293 -2.708,-6.793 -3,-10.5 z m 112,1 c -0.845,29.328 13.322,45.995 42.5,50 6.753,-0.199 13.086,-1.866 19,-5 2.016,11.281 8.85,16.781 20.5,16.5 -27.25,16.21 -51.75,12.71 -73.5,-10.5 -11.047,-15.613 -13.88,-32.613 -8.5,-51 z m -93,2 c 2.823,0.648 4.323,2.314 4.5,5 -1.707,-1.537 -3.207,-3.204 -4.5,-5 z m -13,50 C 95.3985,518.566 79.7319,503.066 67.5,484 c 12.4064,2.965 24.7397,6.465 37,10.5 3.947,11.84 7.28,23.84 10,36 z m -53,-45 c 2.9015,0.501 4.4015,2.167 4.5,5 -3.4488,3.134 -7.2821,5.3 -11.5,6.5 -0.876,-1.586 -1.876,-3.086 -3,-4.5 3.3998,-2.356 6.7331,-4.689 10,-7 z m 72,1 c 0.06,-0.543 0.393,-0.876 1,-1 24.826,16.068 51.492,20.568 80,13.5 -29.011,8.737 -56.011,4.57 -81,-12.5 z m -65,7 c 2.4137,0.906 3.247,2.572 2.5,5 -3.3333,2.667 -6.6667,5.333 -10,8 -1.1667,-1.667 -2.3333,-3.333 -3.5,-5 3.7085,-2.723 7.3751,-5.39 11,-8 z m 68,0 c 1.653,0.16 2.986,0.826 4,2 -1.88,0.271 -3.213,-0.396 -4,-2 z m -23,3 c 6.648,1.829 13.315,3.663 20,5.5 -4.04,7.249 -8.207,14.415 -12.5,21.5 -2.66,-8.974 -5.16,-17.974 -7.5,-27 z m -41,5 c 2.5842,0.069 4.5842,1.235 6,3.5 -3.3037,-0.464 -6.637,-0.464 -10,0 1.8237,-0.66 3.157,-1.827 4,-3.5 z m 52,25 c 3.233,-7.469 7.233,-14.469 12,-21 4.819,4.318 9.485,8.818 14,13.5 -8.449,3.114 -17.116,5.614 -26,7.5 z m 25,-19 c 0.06,-0.543 0.393,-0.876 1,-1 7.239,2.468 14.572,4.635 22,6.5 -4.49,2.058 -9.157,3.058 -14,3 -2.869,-3.038 -5.869,-5.871 -9,-8.5 z m 33,1 c 2.804,-1.138 5.804,-1.305 9,-0.5 -2.894,1.567 -5.894,1.733 -9,0.5 z m -109,1 c 5.1122,-0.701 9.2789,1.299 12.5,6 1.4981,2.965 1.6648,5.965 0.5,9 -1.9826,-3.491 -4.9826,-5.158 -9,-5 0.7503,-4.275 -0.583,-7.609 -4,-10 z m 222,-1 c 1.373,-0.157 2.707,0.01 4,0.5 -3.37,2.697 -4.704,6.197 -4,10.5 -4.523,-0.155 -7.689,1.845 -9.5,6 -0.983,-8.038 2.184,-13.705 9.5,-17 z m -83,1 c 3.973,0.575 4.973,2.742 3,6.5 -4.539,0.116 -8.872,-0.884 -13,-3 3.552,-0.878 6.886,-2.044 10,-3.5 z m -146,2 c 1.9672,-0.239 3.8005,0.094 5.5,1 3.3377,4.819 2.1711,8.152 -3.5,10 -4.3363,-1.001 -5.8363,-3.668 -4.5,-8 0.6979,-1.191 1.5313,-2.191 2.5,-3 z m 236,0 c 6.899,0.248 8.899,3.415 6,9.5 -6.578,2.757 -9.411,0.59 -8.5,-6.5 0.698,-1.191 1.531,-2.191 2.5,-3 z m -118,6 c 1.157,8.156 1.323,16.49 0.5,25 -6.348,-6.181 -12.515,-12.514 -18.5,-19 6.108,-2.018 12.108,-4.018 18,-6 z m 4,0 c 6.62,1.928 13.287,3.761 20,5.5 -6.167,6.167 -12.333,12.333 -18.5,18.5 -0.263,-8.033 -0.763,-16.033 -1.5,-24 z m -96,3 c 2.0441,0.531 3.7107,1.698 5,3.5 -2.8421,3.672 -5.8421,7.172 -9,10.5 -0.3333,-0.333 -0.6667,-0.667 -1,-1 2.1263,-4.185 3.793,-8.519 5,-13 z m -32,2 c 2.5042,2.344 5.5042,3.844 9,4.5 -0.7746,2.904 -0.108,5.57 2,8 -6.931,-1.107 -10.5977,-5.273 -11,-12.5 z m 16,0 c 5.257,0.188 7.4237,2.855 6.5,8 -4.7032,5.563 -8.2032,4.896 -10.5,-2 0.3662,-2.756 1.6995,-4.756 4,-6 z m 217,0 c 5.856,0.354 8.023,3.354 6.5,9 -4.854,4.443 -8.354,3.443 -10.5,-3 0.967,-2.29 2.3,-4.29 4,-6 z m 19,0 c -0.356,7.184 -4.022,11.351 -11,12.5 1.806,-2.573 3.14,-5.407 4,-8.5 2.808,-0.594 5.141,-1.927 7,-4 z m -156,3 c 8.798,8.298 17.465,16.798 26,25.5 -20.947,-0.32 -40.613,-5.487 -59,-15.5 11.102,-3.37 22.102,-6.704 33,-10 z m 60,0 c 1.982,0.495 3.982,0.995 6,1.5 3.757,5.845 8.424,10.845 14,15 -14.362,6.072 -29.362,9.072 -45,9 8.536,-8.368 16.869,-16.868 25,-25.5 z m -117,1 c 2.437,0.386 4.437,1.553 6,3.5 -2.448,4.115 -5.281,7.948 -8.5,11.5 -1.5218,-1.522 -3.0218,-3.022 -4.5,-4.5 2.72,-3.282 5.0533,-6.782 7,-10.5 z m 8,6 c 2.342,0.004 4.342,0.837 6,2.5 -2.504,3.995 -5.171,7.828 -8,11.5 -1.997,-0.486 -3.331,-1.653 -4,-3.5 2.239,-3.396 4.239,-6.896 6,-10.5 z m 9,4 c 1.473,0.572 2.807,1.405 4,2.5 -2.294,4.088 -4.461,8.255 -6.5,12.5 -1.586,-0.876 -3.086,-1.876 -4.5,-3 2.345,-4.028 4.678,-8.028 7,-12 z m -39,2 c 1.3734,-0.157 2.7068,0.01 4,0.5 40.844,32.795 87.177,44.461 139,35 18.42,-3.916 35.753,-10.583 52,-20 5.398,-0.684 10.731,-1.351 16,-2 -53.703,36.336 -110.703,42.336 -171,18 -16.953,-7.639 -32.2865,-17.639 -46,-30 2.2078,-0.191 4.2078,-0.691 6,-1.5 z m 46,2 c 2.012,0.728 4.012,1.562 6,2.5 -1.608,4.519 -3.775,8.685 -6.5,12.5 -2.058,-0.612 -3.891,-1.612 -5.5,-3 2.463,-3.789 4.463,-7.789 6,-12 z m 9,4 c 2.437,0.717 4.77,1.717 7,3 -1.744,4.408 -3.578,8.742 -5.5,13 -2.589,-0.708 -4.755,-2.041 -6.5,-4 2.063,-3.862 3.73,-7.862 5,-12 z m 106,1 c 3.051,4.114 5.051,8.78 6,14 -2.306,0.493 -4.639,0.826 -7,1 -0.832,-4.33 -2.165,-8.496 -4,-12.5 1.815,-0.757 3.481,-1.59 5,-2.5 z m 6,3 c 0.06,-0.543 0.393,-0.876 1,-1 2.55,1.442 5.216,2.608 8,3.5 0.857,0.689 1.523,1.522 2,2.5 -2.083,1.459 -4.25,2.792 -6.5,4 -1.53,-3.061 -3.03,-6.061 -4.5,-9 z m -102,0 c 2,0.333 4,0.667 6,1 -1.315,4.594 -2.315,9.261 -3,14 -2.306,-0.493 -4.639,-0.826 -7,-1 1.13,-4.724 2.464,-9.391 4,-14 z m 87,0 c 2.109,4.051 3.776,8.384 5,13 -1.994,2.417 -3.827,2.417 -5.5,0 -0.974,-3.921 -2.141,-7.754 -3.5,-11.5 1.558,-0.21 2.891,-0.71 4,-1.5 z m -8,2 c 2.114,4.694 3.447,9.694 4,15 -1.762,-0.143 -3.429,0.191 -5,1 -1.751,-4.838 -2.751,-9.838 -3,-15 1.599,0.268 2.932,-0.066 4,-1 z m -70,1 c 2.573,-0.352 4.906,0.148 7,1.5 -1.018,4.588 -2.351,9.088 -4,13.5 -2.387,-0.412 -4.387,-1.412 -6,-3 1.415,-3.909 2.415,-7.909 3,-12 z m 10,1 c 2.005,0.539 4.005,1.205 6,2 -0.832,4.65 -1.665,9.317 -2.5,14 -1.699,-0.906 -3.533,-1.239 -5.5,-1 0.667,-5 1.333,-10 2,-15 z m 51,0 c 1.698,4.445 3.032,9.112 4,14 -2.186,0.721 -4.353,1.387 -6.5,2 -1.562,-4.802 -2.395,-9.802 -2.5,-15 1.915,0.284 3.581,-0.049 5,-1 z m -42,2 c 2.333,0 4.667,0 7,0 -0.003,5.027 -0.336,10.027 -1,15 -2.361,-0.174 -4.694,-0.507 -7,-1 0.169,-4.681 0.502,-9.348 1,-14 z m 11,0 c 1.208,0.734 2.541,1.067 4,1 0,4.667 0,9.333 0,14 -1.667,0 -3.333,0 -5,0 -0.279,-5.095 0.055,-10.095 1,-15 z m 11,0 c 1.942,4.556 2.608,9.556 2,15 -1.667,0 -3.333,0 -5,0 0,-4.667 0,-9.333 0,-14 1.291,0.237 2.291,-0.096 3,-1 z m 5,0 c 2.104,-0.299 4.104,0.034 6,1 0.911,4.288 1.578,8.621 2,13 -2.361,0.174 -4.694,0.507 -7,1 -0.113,-5.018 -0.447,-10.018 -1,-15 z"
       id="path105" />
  </g>
</svg>
